<svg xmlns="http://www.w3.org/2000/svg" viewBox="0 0 396.93 159.29"><defs><style>.cls-1{fill:#edf6fc;opacity:0.2;}.cls-2{fill:#5fb0e5;}.cls-3{fill:#d2e9f7;}.cls-10,.cls-4{fill:none;stroke-miterlimit:10;stroke-width:1.5px;}.cls-4{stroke:#36a3f7;}.cls-5{fill:#bfdff5;}.cls-6{fill:#9fd0ef;}.cls-7{fill:#fff;}.cls-13,.cls-8{fill:#9ecfef;}.cls-12,.cls-9{fill:#0565a2;}.cls-11,.cls-9{opacity:0.3;}.cls-10{stroke:#0686d8;}.cls-13{opacity:0.31;}</style></defs><title>Asset 1</title><g id="Layer_2" data-name="Layer 2"><g id="Startup"><g id="Efect"><rect class="cls-1" y="61.19" width="39.75" height="18.87" rx="9.43" ry="9.43"/><rect class="cls-1" x="355.1" y="94.44" width="39.75" height="18.87" rx="9.43" ry="9.43"/><path class="cls-1" d="M49.42,27.31H338.29a11.21,11.21,0,0,1,11.2,11.22h0a9.08,9.08,0,0,1-9.08,9.07H318.6a5.51,5.51,0,0,0-5.5,5.51V56a5.5,5.5,0,0,0,5.5,5.5h53.52a9.09,9.09,0,0,1,9.09,9.09h0a9.09,9.09,0,0,1-9,9.09l-84.08.38a5.5,5.5,0,0,0-5.48,5.5v1.39a5.51,5.51,0,0,0,5.54,5.51l49.61-.36a9.1,9.1,0,0,1,9.15,9.12v2.15a9.09,9.09,0,0,1-9.09,9.07H271.92a5.51,5.51,0,0,0-5.51,5.5v5.22a5.51,5.51,0,0,0,5.44,5.51l111,1.38a14.28,14.28,0,0,1,14.1,14.27h0a14.28,14.28,0,0,1-14.28,14.28H21.7A17.13,17.13,0,0,1,4.58,141.47h0a17.11,17.11,0,0,1,17.21-17.11l37.06.18a5.51,5.51,0,0,0,5.54-5.5v-2.55a5.51,5.51,0,0,0-5.51-5.5H32a9.09,9.09,0,0,1-9.09-9.09v-.66A9.09,9.09,0,0,1,32,92.15h77.24a5.5,5.5,0,0,0,5.5-5.5h0a5.51,5.51,0,0,0-5.5-5.51H56.81a9.09,9.09,0,0,1-9.09-9.09V70.2a9.09,9.09,0,0,1,9.09-9.09h59.42a5.51,5.51,0,0,0,5.5-5.51V51a5.51,5.51,0,0,0-5.5-5.51H49.42a9.09,9.09,0,0,1-9.09-9.09v0A9.09,9.09,0,0,1,49.42,27.31Z"/><path id="_Path_" data-name="&lt;Path&gt;" class="cls-2" d="M277,70.62a1,1,0,1,1-1-1A1,1,0,0,1,277,70.62Z"/><path id="_Path_2" data-name="&lt;Path&gt;" class="cls-2" d="M224.51,61.19a1,1,0,1,1-1-1A1,1,0,0,1,224.51,61.19Z"/><path id="_Path_3" data-name="&lt;Path&gt;" class="cls-2" d="M332.06,54.54c-1.73.46-2.11.83-2.57,2.57-.46-1.74-.83-2.11-2.57-2.57,1.74-.46,2.11-.83,2.57-2.57C330,53.71,330.33,54.08,332.06,54.54Z"/><path id="_Path_4" data-name="&lt;Path&gt;" class="cls-2" d="M127,76.21c-1.31.35-1.59.63-1.94,1.94-.34-1.31-.63-1.59-1.93-1.94,1.3-.35,1.59-.63,1.93-1.94C125.42,75.58,125.7,75.86,127,76.21Z"/><path id="_Path_5" data-name="&lt;Path&gt;" class="cls-2" d="M178.59,16.6c-1.31.34-1.59.62-1.94,1.93-.34-1.31-.62-1.59-1.93-1.93,1.31-.35,1.59-.63,1.93-1.94C177,16,177.28,16.25,178.59,16.6Z"/><path id="_Path_6" data-name="&lt;Path&gt;" class="cls-2" d="M48.11,87.07c-1.77.47-2.15.85-2.62,2.61-.47-1.76-.85-2.14-2.61-2.61,1.76-.47,2.14-.85,2.61-2.62C46,86.22,46.34,86.6,48.11,87.07Z"/><path id="_Path_7" data-name="&lt;Path&gt;" class="cls-2" d="M94.52,51.39c-2.13.57-2.58,1-3.15,3.15-.56-2.13-1-2.58-3.15-3.15,2.13-.56,2.59-1,3.15-3.15C91.94,50.37,92.39,50.83,94.52,51.39Z"/><path id="_Path_8" data-name="&lt;Path&gt;" class="cls-2" d="M259.45,45.27c-2.13.57-2.59,1-3.15,3.15-.56-2.13-1-2.58-3.15-3.15,2.13-.56,2.59-1,3.15-3.14C256.86,44.25,257.32,44.71,259.45,45.27Z"/><path id="_Path_9" data-name="&lt;Path&gt;" class="cls-2" d="M155.09,51.39c-2.2.59-2.68,1.06-3.27,3.27-.58-2.21-1.06-2.68-3.27-3.27,2.21-.58,2.69-1.06,3.27-3.27C152.41,50.33,152.89,50.81,155.09,51.39Z"/></g><circle id="_Path_10" data-name="&lt;Path&gt;" class="cls-3" cx="228.31" cy="19.05" r="18.3" transform="translate(1.76 53.17) rotate(-13.34)"/><path class="cls-2" d="M244.1,9.84a18.29,18.29,0,0,1-33.59,13.43A18.29,18.29,0,1,0,244.1,9.84Z"/><path id="_Path_11" data-name="&lt;Path&gt;" class="cls-4" d="M243.8,9.31a18.26,18.26,0,1,1-9.87-7.68"/><path id="_Path_12" data-name="&lt;Path&gt;" class="cls-4" d="M237.2,3.05a18.06,18.06,0,0,1,3.49,2.53"/><g id="_Group_" data-name="&lt;Group&gt;"><path id="_Path_13" data-name="&lt;Path&gt;" class="cls-4" d="M233.11,14.51h-5.94a2.27,2.27,0,0,0-2.27,2.27h0a2.27,2.27,0,0,0,2.27,2.27h2.45a2.27,2.27,0,0,1,2.27,2.27h0a2.27,2.27,0,0,1-2.27,2.27h-6.11"/><line id="_Path_14" data-name="&lt;Path&gt;" class="cls-4" x1="228.31" y1="10.76" x2="228.31" y2="27.35"/></g><path class="cls-4" d="M225,6.76a2.45,2.45,0,1,1-2.45-2.45A2.45,2.45,0,0,1,225,6.76Z"/><circle class="cls-4" cx="214.11" cy="13.47" r="1.76"/><circle class="cls-4" cx="221.11" cy="13.51" r="1.61"/><rect class="cls-5" x="99.29" y="108.31" width="83.14" height="50.13" rx="1.98" ry="1.98"/><path class="cls-6" d="M101.27,108.31h79.18a2,2,0,0,1,2,2v18.81a0,0,0,0,1,0,0H99.29a0,0,0,0,1,0,0V110.29A2,2,0,0,1,101.27,108.31Z"/><path class="cls-4" d="M182.43,156.45a2,2,0,0,1-2,2H101.27a2,2,0,0,1-2-2"/><line class="cls-4" x1="106.27" y1="108.31" x2="139.44" y2="108.31"/><line class="cls-4" x1="99.29" y1="129.11" x2="182.43" y2="129.11"/><rect class="cls-7" x="163.12" y="124.61" width="6.28" height="8.77"/><rect class="cls-7" x="112.12" y="124.61" width="6.28" height="8.77"/><rect class="cls-4" x="163.12" y="124.61" width="6.28" height="8.77"/><rect class="cls-4" x="112.12" y="124.61" width="6.28" height="8.77"/><path class="cls-4" d="M125.6,108.52A14.55,14.55,0,0,1,140.11,94h0"/><g id="_Group_2" data-name="&lt;Group&gt;"><path id="_Rectangle_" data-name="&lt;Rectangle&gt;" class="cls-2" d="M302.27,126.9H341.4a1.49,1.49,0,0,1,1.49,1.49v27.17a2.88,2.88,0,0,1-2.88,2.88H300.85a0,0,0,0,1,0,0V128.32A1.42,1.42,0,0,1,302.27,126.9Z"/><path id="_Path_15" data-name="&lt;Path&gt;" class="cls-4" d="M327.26,126.9H302.48a1.63,1.63,0,0,0-1.63,1.63v29.91h38.74a3.3,3.3,0,0,0,3.3-3.3V128.61a1.72,1.72,0,0,0-1.71-1.71h-2.59"/><g id="_Group_3" data-name="&lt;Group&gt;"><path id="_Path_16" data-name="&lt;Path&gt;" class="cls-7" d="M327.83,115.1l8.38,8.37V152.7a2.4,2.4,0,0,1-2.4,2.4h-25a2.39,2.39,0,0,1-2.39-2.4V117.49a2.39,2.39,0,0,1,2.39-2.39Z"/><polygon id="_Path_17" data-name="&lt;Path&gt;" class="cls-2" points="327.83 123.47 327.83 115.1 336.21 123.47 327.83 123.47"/><path id="_Path_18" data-name="&lt;Path&gt;" class="cls-4" d="M336.21,123.47h-7.54a.84.84,0,0,1-.84-.83V115.1"/><path id="_Path_19" data-name="&lt;Path&gt;" class="cls-4" d="M306.42,128.78V117.49a2.39,2.39,0,0,1,2.39-2.39h19l8.38,8.37V152.7a2.4,2.4,0,0,1-2.4,2.4h-25"/></g><g id="_Group_4" data-name="&lt;Group&gt;"><path id="_Path_20" data-name="&lt;Path&gt;" class="cls-3" d="M332.71,112.66l8.37,8.37v29.24a2.39,2.39,0,0,1-2.39,2.39h-25a2.39,2.39,0,0,1-2.4-2.39V115.06a2.39,2.39,0,0,1,2.4-2.4Z"/><polygon id="_Path_21" data-name="&lt;Path&gt;" class="cls-2" points="332.71 121.03 332.71 112.66 341.08 121.03 332.71 121.03"/><path id="_Path_22" data-name="&lt;Path&gt;" class="cls-4" d="M341.08,121h-7.53a.83.83,0,0,1-.84-.83v-7.54"/><line id="_Path_23" data-name="&lt;Path&gt;" class="cls-4" x1="337.06" y1="125.12" x2="315.76" y2="125.12"/><line id="_Path_24" data-name="&lt;Path&gt;" class="cls-4" x1="337.06" y1="129.87" x2="315.76" y2="129.87"/><line id="_Path_25" data-name="&lt;Path&gt;" class="cls-4" x1="337.06" y1="134.62" x2="315.76" y2="134.62"/><line id="_Path_26" data-name="&lt;Path&gt;" class="cls-4" x1="337.06" y1="139.37" x2="315.76" y2="139.37"/><path id="_Path_27" data-name="&lt;Path&gt;" class="cls-4" d="M311.29,132V115.06a2.39,2.39,0,0,1,2.4-2.4h19l8.37,8.37v29.24a2.39,2.39,0,0,1-2.39,2.39h-1.1"/></g><g id="_Group_5" data-name="&lt;Group&gt;"><path id="_Path_28" data-name="&lt;Path&gt;" class="cls-7" d="M337.59,116.32l8.37,8.37v29.23a2.39,2.39,0,0,1-2.4,2.4h-25a2.39,2.39,0,0,1-2.39-2.4V118.71a2.39,2.39,0,0,1,2.39-2.39Z"/><polygon id="_Path_29" data-name="&lt;Path&gt;" class="cls-2" points="337.59 124.69 337.59 116.32 345.96 124.69 337.59 124.69"/><path id="_Path_30" data-name="&lt;Path&gt;" class="cls-4" d="M346,124.69h-7.54a.83.83,0,0,1-.83-.84v-7.53"/><line id="_Path_31" data-name="&lt;Path&gt;" class="cls-4" x1="341.94" y1="128.78" x2="320.64" y2="128.78"/><line id="_Path_32" data-name="&lt;Path&gt;" class="cls-4" x1="341.94" y1="133.53" x2="320.64" y2="133.53"/><line id="_Path_33" data-name="&lt;Path&gt;" class="cls-4" x1="341.94" y1="138.28" x2="320.64" y2="138.28"/><line id="_Path_34" data-name="&lt;Path&gt;" class="cls-4" x1="341.94" y1="143.03" x2="320.64" y2="143.03"/><path id="_Path_35" data-name="&lt;Path&gt;" class="cls-4" d="M316.17,132V118.71a2.39,2.39,0,0,1,2.39-2.39h19l8.37,8.37v29.23a2.39,2.39,0,0,1-2.4,2.4h-4.27"/></g><path id="_Path_36" data-name="&lt;Path&gt;" class="cls-7" d="M339.52,158.44H299.41a1.74,1.74,0,0,1-1.74-1.74V131.79a1.45,1.45,0,0,1,1.45-1.45H306a1.46,1.46,0,0,1,1.23.68l1.77,2.81h25.51a1.67,1.67,0,0,1,1.67,1.67v19.57A3.29,3.29,0,0,0,339.52,158.44Z"/><path id="_Path_37" data-name="&lt;Path&gt;" class="cls-8" d="M336.16,155.07v-2.83H297.67v4.46a1.74,1.74,0,0,0,1.74,1.74h40.11A3.29,3.29,0,0,1,336.16,155.07Z"/><path id="_Path_38" data-name="&lt;Path&gt;" class="cls-4" d="M297.67,135.24v-3.45a1.45,1.45,0,0,1,1.45-1.45H306a1.46,1.46,0,0,1,1.23.68l1.77,2.81h25.51a1.67,1.67,0,0,1,1.67,1.67v19.57a3.29,3.29,0,0,0,3.36,3.37H299.41"/></g><path class="cls-9" d="M106.46,158.44V109.62a8.28,8.28,0,0,0-.19-1.74v.43h-5a2,2,0,0,0-2,2v46.16h-.75a2.71,2.71,0,0,0,.86,2h7.06Z"/><path id="_Path_39" data-name="&lt;Path&gt;" class="cls-2" d="M93.73,110.71v-3.89a4,4,0,0,1,4.1-4.18H52a2.94,2.94,0,0,0-3,2.87v5.2Z"/><path id="_Path_40" data-name="&lt;Path&gt;" class="cls-4" d="M67.74,102.24H52a3,3,0,0,0-3,3v5.46h6.28"/><path id="_Path_41" data-name="&lt;Path&gt;" class="cls-7" d="M103.71,158.44V109.62a7.37,7.37,0,0,0-7.38-7.38H51.76a3.44,3.44,0,0,1,3.75,3.64v52.56Z"/><line id="_Path_42" data-name="&lt;Path&gt;" class="cls-4" x1="55.51" y1="140.36" x2="55.51" y2="158.44"/><path id="_Path_43" data-name="&lt;Path&gt;" class="cls-4" d="M85.05,102.24H51.76a3.44,3.44,0,0,1,3.75,3.64V116.2"/><line id="_Path_44" data-name="&lt;Path&gt;" class="cls-4" x1="91.37" y1="102.24" x2="87.1" y2="102.24"/><path id="_Path_45" data-name="&lt;Path&gt;" class="cls-4" d="M103.71,158.44V109.62a7.37,7.37,0,0,0-7.38-7.38H92.94"/><line id="_Path_46" data-name="&lt;Path&gt;" class="cls-4" x1="61.98" y1="112.69" x2="73.41" y2="112.69"/><line id="_Path_47" data-name="&lt;Path&gt;" class="cls-4" x1="61.98" y1="116.78" x2="88.51" y2="116.78"/><rect id="_Rectangle_2" data-name="&lt;Rectangle&gt;" class="cls-8" x="61.98" y="123.37" width="36.24" height="5.76"/><rect id="_Rectangle_3" data-name="&lt;Rectangle&gt;" class="cls-4" x="61.98" y="123.37" width="36.24" height="28.36"/><line id="_Path_48" data-name="&lt;Path&gt;" class="cls-4" x1="61.29" y1="129.14" x2="97.54" y2="129.14"/><line id="_Path_49" data-name="&lt;Path&gt;" class="cls-4" x1="67.7" y1="151.74" x2="67.7" y2="122.66"/><g id="_Group_6" data-name="&lt;Group&gt;"><rect id="_Rectangle_4" data-name="&lt;Rectangle&gt;" class="cls-7" x="252.24" y="102.5" width="14.34" height="8.78"/><polyline id="_Path_50" data-name="&lt;Path&gt;" class="cls-4" points="252.24 111.29 252.24 102.5 260.92 102.5"/><path id="_Rectangle_5" data-name="&lt;Rectangle&gt;" class="cls-7" d="M249.54,107.48h20a1.39,1.39,0,0,1,1.39,1.39v49a0,0,0,0,1,0,0H248.15a0,0,0,0,1,0,0v-49A1.39,1.39,0,0,1,249.54,107.48Z"/><line id="_Path_51" data-name="&lt;Path&gt;" class="cls-4" x1="249.77" y1="107.48" x2="260.92" y2="107.48"/><line id="_Path_52" data-name="&lt;Path&gt;" class="cls-4" x1="259.67" y1="93.95" x2="259.67" y2="101.73"/><line id="_Path_53" data-name="&lt;Path&gt;" class="cls-4" x1="253.47" y1="113.35" x2="253.47" y2="154.98"/><line id="_Path_54" data-name="&lt;Path&gt;" class="cls-4" x1="259.54" y1="113.35" x2="259.54" y2="154.98"/><line id="_Path_55" data-name="&lt;Path&gt;" class="cls-10" x1="265.6" y1="113.35" x2="265.6" y2="154.98"/><g id="_Group_7" data-name="&lt;Group&gt;"><rect id="_Rectangle_6" data-name="&lt;Rectangle&gt;" class="cls-3" x="250.75" y="113.74" width="56.84" height="29.91" rx="1.94" ry="1.94" transform="translate(150.48 407.87) rotate(-90)"/><path id="_Path_56" data-name="&lt;Path&gt;" class="cls-4" d="M294.13,134.92V103.51a3.24,3.24,0,0,0-3.24-3.24H267.46a3.24,3.24,0,0,0-3.24,3.24v50.36a3.24,3.24,0,0,0,3.24,3.24h14.81"/><path id="_Path_57" data-name="&lt;Path&gt;" class="cls-7" d="M289.1,128.79a10.07,10.07,0,1,1-9.86-10.27A10.07,10.07,0,0,1,289.1,128.79Z"/><path id="_Path_58" data-name="&lt;Path&gt;" class="cls-7" d="M281.47,112.93a2.72,2.72,0,1,1-2.66-2.76A2.71,2.71,0,0,1,281.47,112.93Z"/><path id="_Path_59" data-name="&lt;Path&gt;" class="cls-7" d="M281.47,145a2.72,2.72,0,1,1-2.66-2.77A2.71,2.71,0,0,1,281.47,145Z"/><g id="_Group_8" data-name="&lt;Group&gt;"><path id="_Path_60" data-name="&lt;Path&gt;" class="cls-4" d="M275.22,124.56v5a1.92,1.92,0,0,0,1.91,1.91h0a1.92,1.92,0,0,0,1.91-1.91v-2a1.91,1.91,0,0,1,1.9-1.91h0a1.91,1.91,0,0,1,1.91,1.91v5.13"/><line id="_Path_61" data-name="&lt;Path&gt;" class="cls-4" x1="272.07" y1="128.59" x2="286" y2="128.59"/></g><path id="_Path_62" data-name="&lt;Path&gt;" class="cls-4" d="M289.32,115.59v-5.12a.48.48,0,0,0-.46-.48,5.4,5.4,0,0,1-4.92-4.94.47.47,0,0,0-.47-.45H274.6a.47.47,0,0,0-.46.45,5.41,5.41,0,0,1-5,4.94.45.45,0,0,0-.43.44v4.34"/><path id="_Path_63" data-name="&lt;Path&gt;" class="cls-4" d="M282.87,153.19H273a.49.49,0,0,1-.47-.45,5.41,5.41,0,0,0-5-4.94.45.45,0,0,1-.42-.44V143"/></g><path id="_Path_64" data-name="&lt;Path&gt;" class="cls-7" d="M284.85,158.44v-5.07a.81.81,0,0,1,.81-.81h19.58a.81.81,0,0,1,.81.81v5.07Z"/><path id="_Path_65" data-name="&lt;Path&gt;" class="cls-4" d="M284.85,158.44v-5.07a.81.81,0,0,1,.81-.81h19.58a.81.81,0,0,1,.81.81v5.07"/><rect id="_Rectangle_7" data-name="&lt;Rectangle&gt;" class="cls-7" x="286" y="145" width="21.21" height="6.7" rx="0.39" ry="0.39"/><rect id="_Rectangle_8" data-name="&lt;Rectangle&gt;" class="cls-4" x="286" y="145" width="21.21" height="6.7" rx="0.39" ry="0.39"/><rect id="_Rectangle_9" data-name="&lt;Rectangle&gt;" class="cls-7" x="285.05" y="137.44" width="21.21" height="6.7" rx="0.39" ry="0.39"/><rect id="_Rectangle_10" data-name="&lt;Rectangle&gt;" class="cls-4" x="285.05" y="137.44" width="21.21" height="6.7" rx="0.39" ry="0.39"/></g><path class="cls-9" d="M256.43,153.62l.79-4.87h-4.71v-47h-1v5h-1.72v.75h-.23a1.39,1.39,0,0,0-1.39,1.39v49h5.65A6.6,6.6,0,0,0,256.43,153.62Z"/><g class="cls-11"><path class="cls-12" d="M140.11,93.26a15.56,15.56,0,0,0-2.48.22V95a13.45,13.45,0,0,1,2.48-.24Z"/><path class="cls-12" d="M183.18,156.46h-.75V129.86h0v-1.5h0V110.29a2,2,0,0,0-2-2h-41v-.75h-1.81v41.19h-5.31l.9,5.46a5.91,5.91,0,0,0,5.86,5h41.36A2.74,2.74,0,0,0,183.18,156.46Z"/></g><rect id="_Rectangle_11" data-name="&lt;Rectangle&gt;" class="cls-2" x="141.38" y="76.21" width="108.38" height="77.9" rx="1" ry="1"/><path id="_Path_66" data-name="&lt;Path&gt;" class="cls-4" d="M210.93,76.21h36.14a2.7,2.7,0,0,1,2.69,2.69v72.52a2.7,2.7,0,0,1-2.69,2.69h-103a2.7,2.7,0,0,1-2.69-2.69V78.9a2.7,2.7,0,0,1,2.69-2.69h38.61"/><rect id="_Rectangle_12" data-name="&lt;Rectangle&gt;" class="cls-7" x="146.64" y="82.34" width="97.27" height="63.22"/><path id="_Path_67" data-name="&lt;Path&gt;" class="cls-7" d="M247.86,158.44H142.08a5.19,5.19,0,0,1-5.12-4.35l-.75-4.59h49l1.87,2.69h13.55l2-2.69h51.65l-.65,4A5.91,5.91,0,0,1,247.86,158.44Z"/><path id="_Path_68" data-name="&lt;Path&gt;" class="cls-4" d="M247.86,158.44H142.08a5.19,5.19,0,0,1-5.12-4.35l-.75-4.59h49l1.87,2.69h13.55l2-2.69h51.65l-.65,4A5.91,5.91,0,0,1,247.86,158.44Z"/><g id="_Group_9" data-name="&lt;Group&gt;"><path id="_Path_69" data-name="&lt;Path&gt;" class="cls-8" d="M170.55,119.11h14.72v-32l-5.43,7.34a47.92,47.92,0,0,1-5.29,5.83,13.14,13.14,0,0,0-4,9.45Z"/><path id="_Path_70" data-name="&lt;Path&gt;" class="cls-8" d="M222.06,119.11H207.35v-32l5.43,7.34a47.11,47.11,0,0,0,5.29,5.83,13.17,13.17,0,0,1,4,9.45Z"/><path id="_Path_71" data-name="&lt;Path&gt;" class="cls-4" d="M222.06,119.11H207.35v-32l5.43,7.34a47.11,47.11,0,0,0,5.29,5.83,13.17,13.17,0,0,1,4,9.45Z"/><path id="_Path_72" data-name="&lt;Path&gt;" class="cls-4" d="M170.55,119.11h14.72v-32l-5.43,7.34a47.92,47.92,0,0,1-5.29,5.83,13.14,13.14,0,0,0-4,9.45Z"/><path id="_Path_73" data-name="&lt;Path&gt;" class="cls-7" d="M208.61,119.11H184.39V68.91a18.92,18.92,0,0,1,7.34-15l2.17-1.67a4.26,4.26,0,0,1,5.2,0l2.36,1.82a18.42,18.42,0,0,1,7.15,14.57Z"/><path id="_Path_74" data-name="&lt;Path&gt;" class="cls-13" d="M197.06,54l2.1-1.62-.06,0a4.26,4.26,0,0,0-5.2,0L191.73,54a18.92,18.92,0,0,0-7.34,15v50.2h5.32V68.91A18.9,18.9,0,0,1,197.06,54Z"/><path id="_Path_75" data-name="&lt;Path&gt;" class="cls-4" d="M206.74,60.58a18.51,18.51,0,0,1,1.87,8.09v50.44H184.39V68.91a18.92,18.92,0,0,1,7.34-15l2.17-1.67a4.26,4.26,0,0,1,5.2,0l2.36,1.82"/><path id="_Path_76" data-name="&lt;Path&gt;" class="cls-4" d="M204.08,56.57c.37.43.73.88,1.06,1.35"/><path id="_Path_77" data-name="&lt;Path&gt;" class="cls-8" d="M200.76,74.88a4.26,4.26,0,1,1-4.26-4.26A4.26,4.26,0,0,1,200.76,74.88Z"/><path id="_Path_78" data-name="&lt;Path&gt;" class="cls-8" d="M200.76,89.69a4.26,4.26,0,1,1-4.26-4.26A4.26,4.26,0,0,1,200.76,89.69Z"/><path id="_Path_79" data-name="&lt;Path&gt;" class="cls-8" d="M200.76,104.5a4.26,4.26,0,1,1-4.26-4.25A4.26,4.26,0,0,1,200.76,104.5Z"/><path id="_Path_80" data-name="&lt;Path&gt;" class="cls-4" d="M200.76,74.88a4.26,4.26,0,1,1-4.26-4.26A4.26,4.26,0,0,1,200.76,74.88Z"/><path id="_Path_81" data-name="&lt;Path&gt;" class="cls-4" d="M200.76,89.69a4.26,4.26,0,1,1-4.26-4.26A4.26,4.26,0,0,1,200.76,89.69Z"/><path id="_Path_82" data-name="&lt;Path&gt;" class="cls-4" d="M200.76,104.5a4.26,4.26,0,1,1-4.26-4.25A4.26,4.26,0,0,1,200.76,104.5Z"/><path id="_Path_83" data-name="&lt;Path&gt;" class="cls-7" d="M245.81,120.12a3.93,3.93,0,1,1-3.93-3.92A3.93,3.93,0,0,1,245.81,120.12Z"/><circle id="_Path_84" data-name="&lt;Path&gt;" class="cls-7" cx="230.31" cy="106.56" r="2.69"/><circle id="_Path_85" data-name="&lt;Path&gt;" class="cls-7" cx="148.28" cy="123.66" r="3.54"/><path id="_Path_86" data-name="&lt;Path&gt;" class="cls-7" d="M163.47,107.56a4.44,4.44,0,1,1-4.43-4.44A4.43,4.43,0,0,1,163.47,107.56Z"/><path class="cls-7" d="M239.87,138.71A8.82,8.82,0,1,0,224,133.44c0,.16,0,.32,0,.48a6.31,6.31,0,0,0-4.71,3.05,7.94,7.94,0,0,0-10.72,1.12,6.33,6.33,0,0,0-4.1-1.54,6.25,6.25,0,0,0-1,.1,4.92,4.92,0,0,0,.1-.94,5.57,5.57,0,1,0-11.14,0,6.82,6.82,0,0,0,.08.79,6.85,6.85,0,0,0-8.67,3.18,4.33,4.33,0,0,0-6.35.47,6.34,6.34,0,0,0-6.23-5.21,7,7,0,0,0-.93.09,9,9,0,0,0,.51-2.9,9.14,9.14,0,1,0-16.67,5.18,9,9,0,0,0-6.51,8.66h95.82A9,9,0,0,0,239.87,138.71Z"/><path id="_Path_87" data-name="&lt;Path&gt;" class="cls-4" d="M245.81,120.12a3.93,3.93,0,1,1-3.93-3.92A3.93,3.93,0,0,1,245.81,120.12Z"/><circle id="_Path_88" data-name="&lt;Path&gt;" class="cls-4" cx="230.31" cy="106.56" r="2.69"/><circle id="_Path_89" data-name="&lt;Path&gt;" class="cls-4" cx="148.28" cy="123.66" r="3.54"/><path id="_Path_90" data-name="&lt;Path&gt;" class="cls-4" d="M163.47,107.56a4.44,4.44,0,1,1-4.43-4.44A4.43,4.43,0,0,1,163.47,107.56Z"/><path id="_Compound_Path_" data-name="&lt;Compound Path&gt;" class="cls-4" d="M243.55,146a9,9,0,0,0-3.68-7.26A8.82,8.82,0,1,0,224,133.44c0,.16,0,.32,0,.48a6.31,6.31,0,0,0-4.71,3.05,7.94,7.94,0,0,0-10.72,1.12,6.33,6.33,0,0,0-4.1-1.54,6.25,6.25,0,0,0-1,.1,4.92,4.92,0,0,0,.1-.94,5.57,5.57,0,1,0-11.14,0,6.82,6.82,0,0,0,.08.79,6.85,6.85,0,0,0-8.67,3.18,4.33,4.33,0,0,0-6.35.47,6.34,6.34,0,0,0-6.23-5.21,7,7,0,0,0-.93.09,9,9,0,0,0,.51-2.9,9.14,9.14,0,1,0-16.67,5.18,9,9,0,0,0-6.51,8.66"/></g><path class="cls-9" d="M60,157.54v-.69h2L64,153.56h1.43v-1.5H64.36v-1.27h1.09v-1.5H64.36V148h1.09v-1.5H64.36v-1.27h1.09v-1.5H64.36v-2.57a13,13,0,0,0-6.85-24,12.09,12.09,0,0,0-2,.17v23h-.75v16.49h.08v.69a1.75,1.75,0,0,0,.26.9h4.64A1.75,1.75,0,0,0,60,157.54Z"/><g id="_Group_10" data-name="&lt;Group&gt;"><g id="_Group_11" data-name="&lt;Group&gt;"><rect id="_Rectangle_13" data-name="&lt;Rectangle&gt;" class="cls-2" x="53.59" y="152.93" width="3.66" height="5.61" rx="1" ry="1"/><rect id="_Rectangle_14" data-name="&lt;Rectangle&gt;" class="cls-4" x="53.59" y="152.93" width="3.66" height="5.61" rx="1" ry="1"/><path id="_Path_91" data-name="&lt;Path&gt;" class="cls-7" d="M67.75,130.15a12.24,12.24,0,1,0-18.34,10.6v12.06l1.73,3.29h8.41l2.06-3.29V140.75A12.25,12.25,0,0,0,67.75,130.15Z"/><polygon id="_Path_92" data-name="&lt;Path&gt;" class="cls-3" points="49.41 140.75 49.41 152.81 51.14 156.1 59.55 156.1 61.61 152.81 61.61 140.75 49.41 140.75"/><polygon id="_Path_93" data-name="&lt;Path&gt;" class="cls-2" points="61.61 152.81 59.55 156.1 51.14 156.1 49.41 152.81 61.61 152.81"/><path id="_Path_94" data-name="&lt;Path&gt;" class="cls-4" d="M46.15,122.26a12.23,12.23,0,0,0,3.26,18.49v12.06l1.73,3.29h8.41l2.06-3.29V140.75a12.24,12.24,0,0,0-10.7-22"/><path id="_Path_95" data-name="&lt;Path&gt;" class="cls-4" d="M49.41,119.54a7.18,7.18,0,0,0-2,1.47"/><line id="_Path_96" data-name="&lt;Path&gt;" class="cls-4" x1="47.57" y1="144.49" x2="63.45" y2="144.49"/><line id="_Path_97" data-name="&lt;Path&gt;" class="cls-4" x1="47.57" y1="147.26" x2="63.45" y2="147.26"/><line id="_Path_98" data-name="&lt;Path&gt;" class="cls-4" x1="47.57" y1="150.04" x2="63.45" y2="150.04"/><line id="_Path_99" data-name="&lt;Path&gt;" class="cls-4" x1="47.57" y1="152.81" x2="63.45" y2="152.81"/><circle id="_Path_100" data-name="&lt;Path&gt;" class="cls-3" cx="55.42" cy="129.78" r="8.61" transform="translate(-46.79 32.48) rotate(-23.28)"/><path id="_Path_101" data-name="&lt;Path&gt;" class="cls-2" d="M58.09,127.89a2.59,2.59,0,1,0-4.41,1.82l-.76,4.55h5l-.74-4.42A2.57,2.57,0,0,0,58.09,127.89Z"/><path id="_Path_102" data-name="&lt;Path&gt;" class="cls-4" d="M58.09,127.89a2.59,2.59,0,1,0-4.41,1.82l-.76,4.55h5l-.74-4.42A2.57,2.57,0,0,0,58.09,127.89Z"/></g></g><g id="_Group_12" data-name="&lt;Group&gt;"><g id="_Group_13" data-name="&lt;Group&gt;"><g id="_Group_14" data-name="&lt;Group&gt;"><line id="_Path_103" data-name="&lt;Path&gt;" class="cls-4" x1="36.02" y1="147.22" x2="36.02" y2="151.51"/><path id="_Compound_Path_2" data-name="&lt;Compound Path&gt;" class="cls-3" d="M25.66,137.39A10.36,10.36,0,1,0,36,127,10.36,10.36,0,0,0,25.66,137.39Zm2.49,0A7.87,7.87,0,1,1,36,145.26,7.88,7.88,0,0,1,28.15,137.39Z"/><path id="_Path_104" data-name="&lt;Path&gt;" class="cls-4" d="M30.21,128.82a10.36,10.36,0,1,1-4.55,8.57"/><path id="_Path_105" data-name="&lt;Path&gt;" class="cls-4" d="M25.93,135.07a10.34,10.34,0,0,1,2.57-4.8"/><rect id="_Path_106" data-name="&lt;Path&gt;" class="cls-2" x="33.98" y="150.24" width="4.09" height="8.1"/><polyline id="_Path_107" data-name="&lt;Path&gt;" class="cls-4" points="33.86 158.44 33.98 150.24 38.07 150.24 37.96 158.44"/><line id="_Path_108" data-name="&lt;Path&gt;" class="cls-4" x1="38.17" y1="153.19" x2="33.88" y2="153.19"/><line id="_Path_109" data-name="&lt;Path&gt;" class="cls-4" x1="38.17" y1="155.33" x2="33.88" y2="155.34"/></g><g id="_Group_15" data-name="&lt;Group&gt;"><path id="_Path_110" data-name="&lt;Path&gt;" class="cls-4" d="M37.93,134.3a2.07,2.07,0,1,1-2.07-2.07A2.07,2.07,0,0,1,37.93,134.3Z"/><path id="_Path_111" data-name="&lt;Path&gt;" class="cls-4" d="M32.67,141.94v-.64A3.35,3.35,0,0,1,36,138h0a3.35,3.35,0,0,1,3.35,3.35v.64"/></g></g></g><g id="_Group_16" data-name="&lt;Group&gt;"><g id="_Group_17" data-name="&lt;Group&gt;"><path id="_Path_112" data-name="&lt;Path&gt;" class="cls-4" d="M363.92,128.6a13.26,13.26,0,1,1,19.28,14.24"/><path id="_Path_113" data-name="&lt;Path&gt;" class="cls-4" d="M381.58,118.75a23.77,23.77,0,0,1,3.23,12.38,25,25,0,0,1-2.15,10.35"/><path id="_Path_114" data-name="&lt;Path&gt;" class="cls-4" d="M372.61,118.75a22.76,22.76,0,0,0-3.12,9.82"/><line id="_Path_115" data-name="&lt;Path&gt;" class="cls-4" x1="376.92" y1="117.91" x2="376.92" y2="132.47"/><line id="_Path_116" data-name="&lt;Path&gt;" class="cls-4" x1="375.54" y1="131.16" x2="390.18" y2="131.16"/><line id="_Path_117" data-name="&lt;Path&gt;" class="cls-4" x1="365.71" y1="124.86" x2="388.6" y2="124.86"/><line id="_Path_118" data-name="&lt;Path&gt;" class="cls-4" x1="380.88" y1="137.46" x2="388.36" y2="137.46"/></g><line id="_Path_119" data-name="&lt;Path&gt;" class="cls-4" x1="351.87" y1="124.98" x2="351.87" y2="129.2"/><line id="_Path_120" data-name="&lt;Path&gt;" class="cls-4" x1="353.66" y1="126.69" x2="353.66" y2="130.91"/><polygon id="_Path_121" data-name="&lt;Path&gt;" class="cls-2" points="361.56 154.81 358.21 154.81 354.85 158.44 358.2 158.44 361.56 154.81"/><path id="_Path_122" data-name="&lt;Path&gt;" class="cls-4" d="M361.56,154.81h-3.35L355,158.32a.07.07,0,0,0,.06.12h3.15l.05,0Z"/><polygon id="_Path_123" data-name="&lt;Path&gt;" class="cls-2" points="376.69 158.44 373.35 158.44 369.99 154.81 373.33 154.81 376.69 158.44"/><path id="_Path_124" data-name="&lt;Path&gt;" class="cls-4" d="M376.53,158.44h-3.15l-.05,0L370,154.81h3.34l3.25,3.51A.07.07,0,0,1,376.53,158.44Z"/><circle id="_Path_125" data-name="&lt;Path&gt;" class="cls-7" cx="366.6" cy="144.16" r="14.28"/><circle id="_Path_126" data-name="&lt;Path&gt;" class="cls-2" cx="366.6" cy="144.16" r="9.98"/><circle id="_Path_127" data-name="&lt;Path&gt;" class="cls-7" cx="366.6" cy="144.16" r="6.37"/><path id="_Path_128" data-name="&lt;Path&gt;" class="cls-2" d="M369.27,144.16a2.68,2.68,0,1,1-2.67-2.68A2.68,2.68,0,0,1,369.27,144.16Z"/><path id="_Path_129" data-name="&lt;Path&gt;" class="cls-4" d="M361.13,135.81a8.2,8.2,0,0,1,5.47-1.63,10,10,0,1,1-8.45,4.66"/><path id="_Path_130" data-name="&lt;Path&gt;" class="cls-4" d="M366.6,141.48a2.68,2.68,0,1,1-2.68,2.68"/><path id="_Path_131" data-name="&lt;Path&gt;" class="cls-4" d="M354.09,137.26a13.67,13.67,0,0,1,1.35-2"/><path id="_Path_132" data-name="&lt;Path&gt;" class="cls-4" d="M352.38,142.73a14.49,14.49,0,0,1,.94-3.84"/><path id="_Path_133" data-name="&lt;Path&gt;" class="cls-4" d="M358.38,132.47a14.28,14.28,0,1,1-6.07,11.69"/><line id="_Path_134" data-name="&lt;Path&gt;" class="cls-4" x1="350.63" y1="128.04" x2="366.9" y2="144.31"/><line id="_Path_135" data-name="&lt;Path&gt;" class="cls-4" x1="355.44" y1="128.7" x2="355.44" y2="132.91"/><line id="_Path_136" data-name="&lt;Path&gt;" class="cls-4" x1="355.47" y1="132.92" x2="351.26" y2="132.92"/><line id="_Path_137" data-name="&lt;Path&gt;" class="cls-4" x1="353.65" y1="131.2" x2="349.43" y2="131.2"/><line id="_Path_138" data-name="&lt;Path&gt;" class="cls-4" x1="351.82" y1="129.48" x2="347.61" y2="129.48"/></g><path id="_Compound_Path_3" data-name="&lt;Compound Path&gt;" class="cls-7" d="M26.74,148.83H25.5a6,6,0,0,0-.75-1.8l.88-.88a.8.8,0,0,0,0-1.14l-.66-.67a.81.81,0,0,0-1.14,0l-.88.89a5.72,5.72,0,0,0-1.8-.75v-1.25a.81.81,0,0,0-.81-.81h-.93a.81.81,0,0,0-.81.81v1.25a5.76,5.76,0,0,0-1.77.73l-.88-.89a.81.81,0,0,0-1.14,0l-.67.65a.82.82,0,0,0,0,1.15L15,147a6,6,0,0,0-.75,1.8H13a.81.81,0,0,0-.81.81v.93a.82.82,0,0,0,.8.82h1.25a5.61,5.61,0,0,0,.74,1.8l-.89.88a.81.81,0,0,0,0,1.14l.66.66a.81.81,0,0,0,1.14,0l.89-.88a5.53,5.53,0,0,0,1.8.75V157a.81.81,0,0,0,.81.81h.93a.8.8,0,0,0,.81-.8v-1.25a5.84,5.84,0,0,0,1.8-.74l.88.88a.81.81,0,0,0,1.15,0l.66-.65a.8.8,0,0,0,0-1.14l-.88-.89a5.72,5.72,0,0,0,.75-1.8h1.25a.81.81,0,0,0,.81-.8v-.94A.8.8,0,0,0,26.74,148.83Zm-6.86,3.82a2.56,2.56,0,1,1,2.56-2.56A2.57,2.57,0,0,1,19.88,152.65Z"/><path id="_Compound_Path_4" data-name="&lt;Compound Path&gt;" class="cls-4" d="M26.74,148.83H25.5a6,6,0,0,0-.75-1.8l.88-.88a.8.8,0,0,0,0-1.14l-.66-.67a.81.81,0,0,0-1.14,0l-.88.89a5.72,5.72,0,0,0-1.8-.75v-1.25a.81.81,0,0,0-.81-.81h-.93a.81.81,0,0,0-.81.81v1.25a5.76,5.76,0,0,0-1.77.73l-.88-.89a.81.81,0,0,0-1.14,0l-.67.65a.82.82,0,0,0,0,1.15L15,147a6,6,0,0,0-.75,1.8H13a.81.81,0,0,0-.81.81v.93a.82.82,0,0,0,.8.82h1.25a5.61,5.61,0,0,0,.74,1.8l-.89.88a.81.81,0,0,0,0,1.14l.66.66a.81.81,0,0,0,1.14,0l.89-.88a5.53,5.53,0,0,0,1.8.75V157a.81.81,0,0,0,.81.81h.93a.8.8,0,0,0,.81-.8v-1.25a5.84,5.84,0,0,0,1.8-.74l.88.88a.81.81,0,0,0,1.15,0l.66-.65a.8.8,0,0,0,0-1.14l-.88-.89a5.72,5.72,0,0,0,.75-1.8h1.25a.81.81,0,0,0,.81-.8v-.94A.8.8,0,0,0,26.74,148.83Zm-6.86,3.82a2.56,2.56,0,1,1,2.56-2.56A2.57,2.57,0,0,1,19.88,152.65Z"/><line id="_Path_139" data-name="&lt;Path&gt;" class="cls-4" x1="17.98" y1="158.54" x2="380.28" y2="158.54"/></g></g></svg>