<svg xmlns="http://www.w3.org/2000/svg" viewBox="0 0 196.29 94.84"><defs><style>.ulbc1,.ulbc3{fill:#d2e9f7;}.ulbc1{opacity:0.5;}.ulbc2{fill:#fff;}.ulbc13,.ulbc14,.ulbc4,.ulbc7{fill:none;stroke-miterlimit:10;stroke-width:1.5px;}.ulbc14,.ulbc4,.ulbc7{stroke:#36a3f7;}.ulbc5{fill:#9ecfef;}.ulbc6{fill:#5fb0e5;}.ulbc7{stroke-linecap:round;}.ulbc8{fill:#36a3f7;}.ulbc12,.ulbc9{fill:#0686d8;}.ulbc10{fill:#96cef8;}.ulbc11{fill:#d8ecf9;}.ulbc12{opacity:0.3;}.ulbc13{stroke:#0686d8;}.ulbc14{stroke-dasharray:2;}</style></defs><title>Asset 4</title><g id="Layer_2" data-name="Layer 2"><g id="Power_Tools" data-name="Power Tools"><g id="_Group_" data-name="&lt;Group&gt;"><path id="_Path_" data-name="&lt;Path&gt;" class="ulbc1" d="M0,17.24H0A8.66,8.66,0,0,0,8.65,25.9h17.5a7.77,7.77,0,0,1,7.78,7.77h0a7.78,7.78,0,0,1-7.78,7.78H24.6A10.14,10.14,0,0,0,14.46,51.58h0A10.14,10.14,0,0,0,24.6,61.72H40.35l-.6,32,94.13.37h0a11,11,0,0,1,11-11h35.72A10.47,10.47,0,0,0,191,72.66h0a10.47,10.47,0,0,0-10.47-10.47h-13a7.76,7.76,0,0,1-7.77-7.76h0a7.77,7.77,0,0,1,7.77-7.77h0a8.33,8.33,0,0,0,8.33-8.34v-8.4h9.74a10.67,10.67,0,0,0,10.66-10.67h0A10.66,10.66,0,0,0,185.63,8.59H8.65A8.65,8.65,0,0,0,0,17.24Z"/><g id="_Group_2" data-name="&lt;Group&gt;"><g id="_Group_3" data-name="&lt;Group&gt;"><path id="_Path_2" data-name="&lt;Path&gt;" class="ulbc2" d="M159.79,94.09V20.5a3.81,3.81,0,0,0-3.57-4H103.49a3.81,3.81,0,0,0-3.57,4V94.09Z"/><path id="_Path_3" data-name="&lt;Path&gt;" class="ulbc3" d="M99.92,25.73V19.49a3,3,0,0,1,3-3h53.87a3,3,0,0,1,3,3v6.24Z"/><line id="_Path_4" data-name="&lt;Path&gt;" class="ulbc4" x1="100.23" y1="25.9" x2="159.79" y2="25.9"/><line id="_Path_5" data-name="&lt;Path&gt;" class="ulbc4" x1="106.8" y1="21.62" x2="108.2" y2="21.62"/><line id="_Path_6" data-name="&lt;Path&gt;" class="ulbc4" x1="110.85" y1="21.62" x2="112.25" y2="21.62"/><line id="_Path_7" data-name="&lt;Path&gt;" class="ulbc4" x1="114.9" y1="21.62" x2="116.3" y2="21.62"/><rect id="_Rectangle_" data-name="&lt;Rectangle&gt;" class="ulbc5" x="107.94" y="32.8" width="43.83" height="17.29"/><rect id="_Rectangle_2" data-name="&lt;Rectangle&gt;" class="ulbc5" x="107.95" y="61.07" width="13.33" height="17.29"/><rect id="_Rectangle_3" data-name="&lt;Rectangle&gt;" class="ulbc3" x="123.2" y="61.07" width="13.33" height="17.29"/><rect id="_Rectangle_4" data-name="&lt;Rectangle&gt;" class="ulbc6" x="138.45" y="61.07" width="13.33" height="17.29"/><line id="_Path_8" data-name="&lt;Path&gt;" class="ulbc4" x1="120.54" y1="55.56" x2="139.18" y2="55.56"/><path id="_Path_9" data-name="&lt;Path&gt;" class="ulbc4" d="M159.79,48.84V20.5a3.81,3.81,0,0,0-3.57-4H103.49a3.81,3.81,0,0,0-3.57,4V34.59"/><line id="_Path_10" data-name="&lt;Path&gt;" class="ulbc4" x1="159.79" y1="94.09" x2="159.79" y2="68.27"/></g></g><g id="_Group_4" data-name="&lt;Group&gt;"><line id="_Path_11" data-name="&lt;Path&gt;" class="ulbc7" x1="80.8" y1="2.89" x2="85.08" y2="2.89"/><line id="_Path_12" data-name="&lt;Path&gt;" class="ulbc7" x1="82.94" y1="5.02" x2="82.94" y2="0.75"/></g><g id="_Group_5" data-name="&lt;Group&gt;"><line id="_Path_13" data-name="&lt;Path&gt;" class="ulbc7" x1="7.05" y1="57.2" x2="11.33" y2="57.2"/><line id="_Path_14" data-name="&lt;Path&gt;" class="ulbc7" x1="9.19" y1="59.34" x2="9.19" y2="55.06"/></g><g id="_Group_6" data-name="&lt;Group&gt;"><line id="_Path_15" data-name="&lt;Path&gt;" class="ulbc7" x1="184.36" y1="40.55" x2="187.39" y2="37.53"/><line id="_Path_16" data-name="&lt;Path&gt;" class="ulbc7" x1="187.39" y1="40.55" x2="184.36" y2="37.53"/></g><g id="_Group_7" data-name="&lt;Group&gt;"><line id="_Path_17" data-name="&lt;Path&gt;" class="ulbc7" x1="63.01" y1="17.34" x2="66.03" y2="14.32"/><line id="_Path_18" data-name="&lt;Path&gt;" class="ulbc7" x1="66.03" y1="17.34" x2="63.01" y2="14.32"/></g><line id="_Path_19" data-name="&lt;Path&gt;" class="ulbc4" x1="171.21" y1="49.95" x2="188.61" y2="49.95"/><line id="_Path_20" data-name="&lt;Path&gt;" class="ulbc4" x1="3.16" y1="39.27" x2="28.32" y2="39.27"/><line id="_Path_21" data-name="&lt;Path&gt;" class="ulbc4" x1="193.68" y1="49.95" x2="190.11" y2="49.95"/><line id="_Path_22" data-name="&lt;Path&gt;" class="ulbc4" x1="70.77" y1="15.83" x2="88.17" y2="15.83"/><line id="_Path_23" data-name="&lt;Path&gt;" class="ulbc4" x1="93.24" y1="15.83" x2="89.67" y2="15.83"/><path id="_Path_24" data-name="&lt;Path&gt;" class="ulbc8" d="M11.86,32.42a1.35,1.35,0,1,1-1.35-1.35A1.34,1.34,0,0,1,11.86,32.42Z"/><path id="_Path_25" data-name="&lt;Path&gt;" class="ulbc8" d="M121,2.89a1.35,1.35,0,1,1-1.35-1.35A1.35,1.35,0,0,1,121,2.89Z"/><path id="_Path_26" data-name="&lt;Path&gt;" class="ulbc9" d="M175.68,56.45a1.35,1.35,0,1,1-1.35-1.35A1.35,1.35,0,0,1,175.68,56.45Z"/><path id="_Path_27" data-name="&lt;Path&gt;" class="ulbc8" d="M88.29,28.94a1.87,1.87,0,1,1-1.87-1.87A1.87,1.87,0,0,1,88.29,28.94Z"/><g id="_Group_8" data-name="&lt;Group&gt;"><path id="_Path_28" data-name="&lt;Path&gt;" class="ulbc2" d="M41.64,94.09H37.86a.51.51,0,0,1-.52-.51V39.09a.54.54,0,0,1,0-.22l1.89-4.1a.52.52,0,0,1,.94,0l1.89,4.1a.54.54,0,0,1,0,.22V93.58A.52.52,0,0,1,41.64,94.09Z"/><rect id="_Path_29" data-name="&lt;Path&gt;" class="ulbc10" x="37.34" y="40.83" width="4.81" height="48.05"/><path id="_Path_30" data-name="&lt;Path&gt;" class="ulbc4" d="M37.34,55.51V39l2.13-4.61a.31.31,0,0,1,.56,0L42.16,39V94.09"/><line id="_Path_31" data-name="&lt;Path&gt;" class="ulbc4" x1="37.34" y1="93.92" x2="37.34" y2="76.75"/><line id="_Path_32" data-name="&lt;Path&gt;" class="ulbc4" x1="37.17" y1="40.83" x2="42.16" y2="40.83"/></g><g id="_Group_9" data-name="&lt;Group&gt;"><rect id="_Rectangle_5" data-name="&lt;Rectangle&gt;" class="ulbc5" x="14.44" y="52.33" width="72.18" height="11.34" rx="0.79" ry="0.79" transform="translate(-7.47 108.54) rotate(-90)"/><path id="_Path_33" data-name="&lt;Path&gt;" class="ulbc11" d="M45.51,94.09h4V21.91h-4a.69.69,0,0,0-.65.73V93.37A.69.69,0,0,0,45.51,94.09Z"/><path id="_Path_34" data-name="&lt;Path&gt;" class="ulbc4" d="M44.86,93.3V22.7a.8.8,0,0,1,.79-.79h9.77a.8.8,0,0,1,.79.79V34.3"/><line id="_Path_35" data-name="&lt;Path&gt;" class="ulbc4" x1="44.86" y1="88.2" x2="50.09" y2="88.2"/><line id="_Path_36" data-name="&lt;Path&gt;" class="ulbc4" x1="44.86" y1="80.61" x2="50.09" y2="80.61"/><line id="_Path_37" data-name="&lt;Path&gt;" class="ulbc4" x1="44.86" y1="73.02" x2="50.09" y2="73.02"/><line id="_Path_38" data-name="&lt;Path&gt;" class="ulbc4" x1="44.86" y1="65.43" x2="50.09" y2="65.43"/><line id="_Path_39" data-name="&lt;Path&gt;" class="ulbc4" x1="44.86" y1="57.84" x2="50.09" y2="57.84"/><line id="_Path_40" data-name="&lt;Path&gt;" class="ulbc4" x1="44.86" y1="50.25" x2="50.09" y2="50.25"/><line id="_Path_41" data-name="&lt;Path&gt;" class="ulbc4" x1="44.86" y1="42.66" x2="50.09" y2="42.66"/><line id="_Path_42" data-name="&lt;Path&gt;" class="ulbc4" x1="44.86" y1="35.07" x2="50.09" y2="35.07"/><line id="_Path_43" data-name="&lt;Path&gt;" class="ulbc4" x1="44.86" y1="27.59" x2="50.09" y2="27.59"/></g><g id="_Group_10" data-name="&lt;Group&gt;"><rect id="_Rectangle_6" data-name="&lt;Rectangle&gt;" class="ulbc10" x="51" y="36.28" width="76.21" height="54.78" rx="1" ry="1"/><line id="_Path_44" data-name="&lt;Path&gt;" class="ulbc4" x1="105.93" y1="36.28" x2="111.19" y2="36.28"/><path id="_Path_45" data-name="&lt;Path&gt;" class="ulbc4" d="M127.2,89.16a1.89,1.89,0,0,1-1.89,1.89H52.89A1.89,1.89,0,0,1,51,89.16v-51a1.89,1.89,0,0,1,1.89-1.89h51.67"/><line id="_Path_46" data-name="&lt;Path&gt;" class="ulbc4" x1="112.91" y1="36.28" x2="123.09" y2="36.28"/><rect id="_Rectangle_7" data-name="&lt;Rectangle&gt;" class="ulbc2" x="54.7" y="40.59" width="68.39" height="44.45"/><path id="_Path_47" data-name="&lt;Path&gt;" class="ulbc2" d="M125.87,94.09H51.49a3.64,3.64,0,0,1-3.6-3l-.53-3.23H81.84l1.32,1.89h9.52l1.43-1.89h36.32L130,90.62A4.16,4.16,0,0,1,125.87,94.09Z"/><path id="_Path_48" data-name="&lt;Path&gt;" class="ulbc4" d="M125.87,94.09H51.49a3.64,3.64,0,0,1-3.6-3l-.53-3.23H81.84l1.32,1.89h9.52l1.43-1.89h36.32L130,90.62A4.16,4.16,0,0,1,125.87,94.09Z"/></g><path id="_Path_49" data-name="&lt;Path&gt;" class="ulbc12" d="M131.31,87.06H127.2V37.28a1,1,0,0,0-1-1h-3.11v-.75h-.79l3.35,10.38H123V94.09h5.49a4.86,4.86,0,0,0,2.24-3.35Z"/><g id="_Group_11" data-name="&lt;Group&gt;"><path id="_Path_50" data-name="&lt;Path&gt;" class="ulbc2" d="M131.69,47.58h2.76l4.13-12.51-5.64-10h-.89L132,34.65a6.23,6.23,0,0,1,1.09.56,1.82,1.82,0,1,1-2.58,0,5.72,5.72,0,0,1,.89-.59l.22-9.5h-.87L124.93,35l4,12.55Z"/><path id="_Path_51" data-name="&lt;Path&gt;" class="ulbc4" d="M131.69,47.58h2.76l4.13-12.51-5.64-10h-.89L132,34.65a6.23,6.23,0,0,1,1.09.56,1.82,1.82,0,1,1-2.58,0,5.72,5.72,0,0,1,.89-.59l.22-9.5h-.87L124.93,35l4,12.55Z"/><rect id="_Rectangle_8" data-name="&lt;Rectangle&gt;" class="ulbc3" x="125.73" y="46.66" width="12.05" height="47.43"/><rect id="_Rectangle_9" data-name="&lt;Rectangle&gt;" class="ulbc10" x="131.76" y="46.66" width="5.87" height="47.43"/><line id="_Path_52" data-name="&lt;Path&gt;" class="ulbc4" x1="131.76" y1="25.12" x2="131.76" y2="34.62"/><circle id="_Path_53" data-name="&lt;Path&gt;" class="ulbc4" cx="131.76" cy="36.6" r="2.13"/><line id="_Path_54" data-name="&lt;Path&gt;" class="ulbc4" x1="137.78" y1="79.33" x2="137.78" y2="94.09"/><polyline id="_Path_55" data-name="&lt;Path&gt;" class="ulbc4" points="125.73 94.09 125.73 46.66 137.78 46.66 137.78 49.95"/></g><g id="_Group_12" data-name="&lt;Group&gt;"><g id="_Group_13" data-name="&lt;Group&gt;"><path id="_Path_56" data-name="&lt;Path&gt;" class="ulbc3" d="M150.2,50h3.55l10.83,2.58a2.21,2.21,0,0,1,1.69,2.15v.68H150.2Z"/><path id="_Path_57" data-name="&lt;Path&gt;" class="ulbc3" d="M150.2,67.25h3.55l10.83-2.58a2.21,2.21,0,0,0,1.69-2.15v-.68H150.2Z"/><path id="_Path_58" data-name="&lt;Path&gt;" class="ulbc4" d="M150.2,50h3.55l10.83,2.58a2.21,2.21,0,0,1,1.69,2.15v.68H150.2Z"/><path id="_Path_59" data-name="&lt;Path&gt;" class="ulbc4" d="M150.2,67.25h3.55l10.83-2.58a2.21,2.21,0,0,0,1.69-2.15v-.68H150.2Z"/><path id="_Path_60" data-name="&lt;Path&gt;" class="ulbc3" d="M141.9,60.8h-2.53l-7.72,1.84a1.56,1.56,0,0,0-1.21,1.53v.48H141.9Z"/><path id="_Path_61" data-name="&lt;Path&gt;" class="ulbc3" d="M141.9,55.51h-2.53l-7.72-1.84a1.57,1.57,0,0,1-1.21-1.53v-.48H141.9Z"/><path id="_Path_62" data-name="&lt;Path&gt;" class="ulbc4" d="M141.9,60.8h-2.53l-7.72,1.84a1.56,1.56,0,0,0-1.21,1.53v.48H141.9Z"/><path id="_Path_63" data-name="&lt;Path&gt;" class="ulbc4" d="M141.9,55.51h-2.53l-7.72-1.84a1.57,1.57,0,0,1-1.21-1.53v-.48H141.9Z"/><rect id="_Rectangle_10" data-name="&lt;Rectangle&gt;" class="ulbc2" x="141.35" y="49.95" width="8.85" height="44.14"/><polyline id="_Path_64" data-name="&lt;Path&gt;" class="ulbc4" points="141.35 94.09 141.35 49.95 150.2 49.95 150.2 94.09"/><line id="_Path_65" data-name="&lt;Path&gt;" class="ulbc4" x1="141.35" y1="54.76" x2="145.36" y2="54.76"/><line id="_Path_66" data-name="&lt;Path&gt;" class="ulbc4" x1="141.35" y1="58.48" x2="145.36" y2="58.48"/><line id="_Path_67" data-name="&lt;Path&gt;" class="ulbc4" x1="141.35" y1="62.19" x2="145.36" y2="62.19"/><line id="_Path_68" data-name="&lt;Path&gt;" class="ulbc4" x1="141.35" y1="84.49" x2="145.36" y2="84.49"/><line id="_Path_69" data-name="&lt;Path&gt;" class="ulbc4" x1="141.35" y1="88.2" x2="145.36" y2="88.2"/><line id="_Path_70" data-name="&lt;Path&gt;" class="ulbc4" x1="141.35" y1="91.92" x2="145.36" y2="91.92"/><rect id="_Rectangle_11" data-name="&lt;Rectangle&gt;" class="ulbc10" x="139.32" y="67.35" width="11.4" height="14.8"/><rect id="_Rectangle_12" data-name="&lt;Rectangle&gt;" class="ulbc4" x="139.32" y="67.35" width="11.4" height="14.8"/><rect id="_Rectangle_13" data-name="&lt;Rectangle&gt;" class="ulbc3" x="135.66" y="71.66" width="2.51" height="5.96"/><rect id="_Rectangle_14" data-name="&lt;Rectangle&gt;" class="ulbc4" x="135.66" y="71.66" width="2.51" height="5.96"/><path id="_Path_71" data-name="&lt;Path&gt;" class="ulbc4" d="M165.79,58.48a2,2,0,1,1-2-2A2,2,0,0,1,165.79,58.48Z"/></g></g><g id="_Group_14" data-name="&lt;Group&gt;"><rect id="_Rectangle_15" data-name="&lt;Rectangle&gt;" class="ulbc10" x="26.43" y="88.58" width="3.6" height="5.51" rx="1" ry="1"/><rect id="_Rectangle_16" data-name="&lt;Rectangle&gt;" class="ulbc4" x="26.43" y="88.58" width="3.6" height="5.51" rx="1" ry="1"/><path id="_Path_72" data-name="&lt;Path&gt;" class="ulbc2" d="M40.35,66.18a12,12,0,1,0-18,10.42V88.46L24,91.7h8.27l2-3.24V76.6A12,12,0,0,0,40.35,66.18Z"/><polygon id="_Path_73" data-name="&lt;Path&gt;" class="ulbc5" points="22.32 79.91 22.32 89.17 24.02 91.7 32.29 91.7 34.31 89.17 34.31 79.91 22.32 79.91"/><polygon id="_Path_74" data-name="&lt;Path&gt;" class="ulbc10" points="34.31 88.46 32.29 91.7 24.02 91.7 22.32 88.46 34.31 88.46"/><path id="_Path_75" data-name="&lt;Path&gt;" class="ulbc4" d="M19.11,58.43A12,12,0,0,0,22.32,76.6V88.46L24,91.7h8.27l2-3.24V76.6A12,12,0,0,0,23.8,55"/><path id="_Path_76" data-name="&lt;Path&gt;" class="ulbc13" d="M22.32,55.75a7.27,7.27,0,0,0-2,1.45"/><line id="_Path_77" data-name="&lt;Path&gt;" class="ulbc4" x1="20.51" y1="80.28" x2="36.12" y2="80.28"/><line id="_Path_78" data-name="&lt;Path&gt;" class="ulbc4" x1="20.51" y1="83.01" x2="36.12" y2="83.01"/><line id="_Path_79" data-name="&lt;Path&gt;" class="ulbc4" x1="20.51" y1="85.74" x2="36.12" y2="85.74"/><line id="_Path_80" data-name="&lt;Path&gt;" class="ulbc4" x1="20.51" y1="88.46" x2="36.12" y2="88.46"/><path id="_Path_81" data-name="&lt;Path&gt;" class="ulbc10" d="M34.65,66.19a6.33,6.33,0,1,1-6.33-6.33A6.34,6.34,0,0,1,34.65,66.19Z"/><g id="_Group_15" data-name="&lt;Group&gt;"><g id="_Group_16" data-name="&lt;Group&gt;"><polygon id="_Path_82" data-name="&lt;Path&gt;" class="ulbc8" points="29.94 58.31 26.36 66.1 25.69 65.01 30.77 65.01 32.03 65.01 31.45 66.08 26.97 74.4 26.38 74.12 30.1 65.43 30.77 66.51 25.69 66.51 24.41 66.51 25.02 65.42 29.2 57.93 29.94 58.31"/></g></g></g><g id="_Group_17" data-name="&lt;Group&gt;"><circle id="_Path_83" data-name="&lt;Path&gt;" class="ulbc6" cx="89.07" cy="63.57" r="8.04"/><circle id="_Path_84" data-name="&lt;Path&gt;" class="ulbc4" cx="89.07" cy="63.57" r="8.04"/><rect id="_Rectangle_17" data-name="&lt;Rectangle&gt;" class="ulbc4" x="76.32" y="50.48" width="3.15" height="3.15"/><rect id="_Rectangle_18" data-name="&lt;Rectangle&gt;" class="ulbc4" x="98.63" y="50.48" width="3.15" height="3.15"/><rect id="_Rectangle_19" data-name="&lt;Rectangle&gt;" class="ulbc4" x="76.32" y="72.8" width="3.15" height="3.15"/><rect id="_Rectangle_20" data-name="&lt;Rectangle&gt;" class="ulbc4" x="98.63" y="72.8" width="3.15" height="3.15"/><g id="_Group_18" data-name="&lt;Group&gt;"><line id="_Path_85" data-name="&lt;Path&gt;" class="ulbc14" x1="80.43" y1="74.6" x2="82.01" y2="74.6"/><line id="_Path_86" data-name="&lt;Path&gt;" class="ulbc14" x1="83.12" y1="74.6" x2="84.7" y2="74.6"/><line id="_Path_87" data-name="&lt;Path&gt;" class="ulbc14" x1="85.81" y1="74.6" x2="87.39" y2="74.6"/><line id="_Path_88" data-name="&lt;Path&gt;" class="ulbc14" x1="88.5" y1="74.6" x2="90.08" y2="74.6"/><line id="_Path_89" data-name="&lt;Path&gt;" class="ulbc14" x1="91.19" y1="74.6" x2="92.77" y2="74.6"/><line id="_Path_90" data-name="&lt;Path&gt;" class="ulbc14" x1="93.88" y1="74.6" x2="95.46" y2="74.6"/><line id="_Path_91" data-name="&lt;Path&gt;" class="ulbc14" x1="96.57" y1="74.6" x2="98.15" y2="74.6"/></g><g id="_Group_19" data-name="&lt;Group&gt;"><line id="_Path_92" data-name="&lt;Path&gt;" class="ulbc14" x1="80.43" y1="51.95" x2="82.01" y2="51.95"/><line id="_Path_93" data-name="&lt;Path&gt;" class="ulbc14" x1="83.12" y1="51.95" x2="84.7" y2="51.95"/><line id="_Path_94" data-name="&lt;Path&gt;" class="ulbc14" x1="85.81" y1="51.95" x2="87.39" y2="51.95"/><line id="_Path_95" data-name="&lt;Path&gt;" class="ulbc14" x1="88.5" y1="51.95" x2="90.08" y2="51.95"/><line id="_Path_96" data-name="&lt;Path&gt;" class="ulbc14" x1="91.19" y1="51.95" x2="92.77" y2="51.95"/><line id="_Path_97" data-name="&lt;Path&gt;" class="ulbc14" x1="93.88" y1="51.95" x2="95.46" y2="51.95"/><line id="_Path_98" data-name="&lt;Path&gt;" class="ulbc14" x1="96.57" y1="51.95" x2="98.15" y2="51.95"/></g><g id="_Group_20" data-name="&lt;Group&gt;"><line id="_Path_99" data-name="&lt;Path&gt;" class="ulbc14" x1="78.13" y1="71.96" x2="78.13" y2="70.39"/><line id="_Path_100" data-name="&lt;Path&gt;" class="ulbc14" x1="78.13" y1="69.27" x2="78.13" y2="67.7"/><line id="_Path_101" data-name="&lt;Path&gt;" class="ulbc14" x1="78.13" y1="66.58" x2="78.13" y2="65.01"/><line id="_Path_102" data-name="&lt;Path&gt;" class="ulbc14" x1="78.13" y1="63.89" x2="78.13" y2="62.32"/><line id="_Path_103" data-name="&lt;Path&gt;" class="ulbc14" x1="78.13" y1="61.2" x2="78.13" y2="59.63"/><line id="_Path_104" data-name="&lt;Path&gt;" class="ulbc14" x1="78.13" y1="58.51" x2="78.13" y2="56.94"/><line id="_Path_105" data-name="&lt;Path&gt;" class="ulbc14" x1="78.13" y1="55.82" x2="78.13" y2="54.24"/></g><g id="_Group_21" data-name="&lt;Group&gt;"><line id="_Path_106" data-name="&lt;Path&gt;" class="ulbc14" x1="100.11" y1="71.96" x2="100.11" y2="70.39"/><line id="_Path_107" data-name="&lt;Path&gt;" class="ulbc14" x1="100.11" y1="69.27" x2="100.11" y2="67.7"/><line id="_Path_108" data-name="&lt;Path&gt;" class="ulbc14" x1="100.11" y1="66.58" x2="100.11" y2="65.01"/><line id="_Path_109" data-name="&lt;Path&gt;" class="ulbc14" x1="100.11" y1="63.89" x2="100.11" y2="62.32"/><line id="_Path_110" data-name="&lt;Path&gt;" class="ulbc14" x1="100.11" y1="61.2" x2="100.11" y2="59.63"/><line id="_Path_111" data-name="&lt;Path&gt;" class="ulbc14" x1="100.11" y1="58.51" x2="100.11" y2="56.94"/><line id="_Path_112" data-name="&lt;Path&gt;" class="ulbc14" x1="100.11" y1="55.82" x2="100.11" y2="54.24"/></g></g><g id="_Group_22" data-name="&lt;Group&gt;"><line id="_Path_113" data-name="&lt;Path&gt;" class="ulbc4" x1="10.51" y1="94.09" x2="174.33" y2="94.09"/><line id="_Path_114" data-name="&lt;Path&gt;" class="ulbc4" x1="5.95" y1="94.09" x2="8.69" y2="94.09"/><line id="_Path_115" data-name="&lt;Path&gt;" class="ulbc4" x1="175.9" y1="94.09" x2="181.95" y2="94.09"/></g></g></g></g></svg>