<svg xmlns="http://www.w3.org/2000/svg" viewBox="0 0 207.08 96.15"><defs><style>.ulbb1,.ulbb8{fill:#d2e9f7;}.ulbb1{opacity:0.5;}.ulbb2{fill:#fff;}.ulbb3{fill:#96cef8;}.ulbb4,.ulbb6{fill:none;stroke:#36a3f7;stroke-miterlimit:10;stroke-width:1.5px;}.ulbb11,.ulbb5{fill:#9ecfef;}.ulbb6{stroke-linecap:round;}.ulbb7{fill:#36a3f7;}.ulbb9{fill:#5fb0e5;}.ulbb10{fill:#0686d8;opacity:0.3;}.ulbb11{opacity:0.46;}.ulbb12{fill:#f1f2f2;}</style></defs><title>Asset 3</title><g id="Layer_2" data-name="Layer 2"><g id="Power_Tools" data-name="Power Tools"><g id="_Group_" data-name="&lt;Group&gt;"><path id="_Path_" data-name="&lt;Path&gt;" class="ulbb1" d="M27.75,7.11H171.18a8.69,8.69,0,0,1,8.69,8.69h0a8.7,8.7,0,0,1-8.69,8.7H154.84a7.57,7.57,0,0,0-7.58,7.57h0a7.57,7.57,0,0,0,7.58,7.57H198.7A8.38,8.38,0,0,1,207.08,48h0a8.38,8.38,0,0,1-8.38,8.37h-22a15.17,15.17,0,0,1-15.16,15.17h0a6.7,6.7,0,0,0-6.7,6.7V96.11H58.56V94.64A16.24,16.24,0,0,0,42.47,78.39L9.19,78.06A9.3,9.3,0,0,1,0,68.77H0a9.29,9.29,0,0,1,9.28-9.28H42.5a15.3,15.3,0,0,1,15.3-15.3h1.3a9.31,9.31,0,0,0,9.31-9.31h0a9.31,9.31,0,0,0-9.31-9.32H27.75a9.23,9.23,0,0,1-9.23-9.23h0A9.22,9.22,0,0,1,27.75,7.11Z"/><g id="_Group_2" data-name="&lt;Group&gt;"><g id="_Group_3" data-name="&lt;Group&gt;"><rect id="_Rectangle_" data-name="&lt;Rectangle&gt;" class="ulbb2" x="52.09" y="65.39" width="21.17" height="21.17" rx="1.06" ry="1.06" transform="translate(25.74 -15.33) rotate(17.5)"/><rect id="_Rectangle_2" data-name="&lt;Rectangle&gt;" class="ulbb3" x="54.76" y="67.84" width="15.82" height="14.9" transform="translate(25.53 -15.36) rotate(17.5)"/><path id="_Path_2" data-name="&lt;Path&gt;" class="ulbb4" d="M53.59,69.58l1.78-5.65A1.3,1.3,0,0,1,57,63.08l3.43,1.24"/></g><g id="_Group_4" data-name="&lt;Group&gt;"><rect id="_Rectangle_3" data-name="&lt;Rectangle&gt;" class="ulbb2" x="24.71" y="66.04" width="22.89" height="16.1" rx="1.56" ry="1.56" transform="translate(-15.38 9.74) rotate(-12.68)"/><path id="_Path_3" data-name="&lt;Path&gt;" class="ulbb5" d="M45.56,63.72l-9,9.93a.82.82,0,0,1-.93.21L23.23,68.75Z"/><path id="_Path_4" data-name="&lt;Path&gt;" class="ulbb4" d="M23.46,68.84l12.16,5a.82.82,0,0,0,.93-.21L45.27,64"/><path id="_Path_5" data-name="&lt;Path&gt;" class="ulbb4" d="M26.32,82.51,23.44,69.72a1,1,0,0,1,.75-1.19l2.1-.47"/><path id="_Path_6" data-name="&lt;Path&gt;" class="ulbb4" d="M31.73,66.83l12.86-2.89a1,1,0,0,1,1.18.75l1.1,4.89"/><line id="_Path_7" data-name="&lt;Path&gt;" class="ulbb4" x1="28.05" y1="67.66" x2="30.45" y2="67.12"/></g><path id="_Path_8" data-name="&lt;Path&gt;" class="ulbb2" d="M70.24,84.63H70a7.4,7.4,0,0,0-11.1-4.17A10.13,10.13,0,0,0,39.26,79a6.69,6.69,0,0,0-1.8-.25,7,7,0,0,0-6.87,5.87H29.46a5.21,5.21,0,0,0-5.2,5.19v.38a5.22,5.22,0,0,0,5.2,5.2H70.24a5.22,5.22,0,0,0,5.2-5.2v-.38A5.21,5.21,0,0,0,70.24,84.63Z"/><path id="_Path_9" data-name="&lt;Path&gt;" class="ulbb4" d="M58.94,80.46A10.13,10.13,0,0,0,39.26,79a6.69,6.69,0,0,0-1.8-.25,7,7,0,0,0-6.87,5.87H29.46a5.21,5.21,0,0,0-5.2,5.19v.38a5.22,5.22,0,0,0,5.2,5.2H70.24"/><path id="_Path_10" data-name="&lt;Path&gt;" class="ulbb4" d="M55.54,79.64A8.43,8.43,0,0,0,44.16,77"/><path id="_Path_11" data-name="&lt;Path&gt;" class="ulbb4" d="M37.59,78.73a3.6,3.6,0,0,1,3.6,3.61"/><g id="_Group_5" data-name="&lt;Group&gt;"><path id="_Path_12" data-name="&lt;Path&gt;" class="ulbb2" d="M49.14,59.05c.13.76-.66,1.54-1.77,1.73s-2.11-.28-2.24-1,.66-1.54,1.76-1.73S49,58.28,49.14,59.05Z"/><path id="_Path_13" data-name="&lt;Path&gt;" class="ulbb4" d="M49.14,59.05c.13.76-.66,1.54-1.77,1.73s-2.11-.28-2.24-1,.66-1.54,1.76-1.73S49,58.28,49.14,59.05Z"/><path id="_Path_14" data-name="&lt;Path&gt;" class="ulbb2" d="M54.83,59.05c.13.76-.66,1.54-1.77,1.73s-2.11-.28-2.24-1,.65-1.54,1.76-1.73S54.7,58.28,54.83,59.05Z"/><path id="_Path_15" data-name="&lt;Path&gt;" class="ulbb4" d="M54.83,59.05c.13.76-.66,1.54-1.77,1.73s-2.11-.28-2.24-1,.65-1.54,1.76-1.73S54.7,58.28,54.83,59.05Z"/><polyline id="_Path_16" data-name="&lt;Path&gt;" class="ulbb4" points="49.16 59.21 49.16 52.04 54.84 52.04 54.84 59.21"/></g></g><g id="_Group_6" data-name="&lt;Group&gt;"><line id="_Path_17" data-name="&lt;Path&gt;" class="ulbb6" x1="93.83" y1="3.87" x2="98.1" y2="3.87"/><line id="_Path_18" data-name="&lt;Path&gt;" class="ulbb6" x1="95.97" y1="6.01" x2="95.97" y2="1.73"/></g><g id="_Group_7" data-name="&lt;Group&gt;"><line id="_Path_19" data-name="&lt;Path&gt;" class="ulbb6" x1="31.1" y1="15.15" x2="35.38" y2="15.15"/><line id="_Path_20" data-name="&lt;Path&gt;" class="ulbb6" x1="33.24" y1="17.29" x2="33.24" y2="13.01"/></g><g id="_Group_8" data-name="&lt;Group&gt;"><line id="_Path_21" data-name="&lt;Path&gt;" class="ulbb6" x1="194" y1="60.05" x2="198.27" y2="60.05"/><line id="_Path_22" data-name="&lt;Path&gt;" class="ulbb6" x1="196.14" y1="62.19" x2="196.14" y2="57.91"/></g><g id="_Group_9" data-name="&lt;Group&gt;"><line id="_Path_23" data-name="&lt;Path&gt;" class="ulbb6" x1="178.32" y1="31.93" x2="181.34" y2="28.9"/><line id="_Path_24" data-name="&lt;Path&gt;" class="ulbb6" x1="181.34" y1="31.93" x2="178.32" y2="28.9"/></g><g id="_Group_10" data-name="&lt;Group&gt;"><line id="_Path_25" data-name="&lt;Path&gt;" class="ulbb6" x1="30.22" y1="56.12" x2="33.24" y2="53.1"/><line id="_Path_26" data-name="&lt;Path&gt;" class="ulbb6" x1="33.24" y1="56.12" x2="30.22" y2="53.1"/></g><line id="_Path_27" data-name="&lt;Path&gt;" class="ulbb4" x1="68.43" y1="3.95" x2="85.83" y2="3.95"/><line id="_Path_28" data-name="&lt;Path&gt;" class="ulbb4" x1="157.82" y1="30.42" x2="175.22" y2="30.42"/><line id="_Path_29" data-name="&lt;Path&gt;" class="ulbb4" x1="90.9" y1="3.95" x2="87.33" y2="3.95"/><path id="_Path_30" data-name="&lt;Path&gt;" class="ulbb7" d="M183.34,68.83a1.28,1.28,0,1,1-1.28-1.28A1.27,1.27,0,0,1,183.34,68.83Z"/><path id="_Path_31" data-name="&lt;Path&gt;" class="ulbb7" d="M139,3.87a1.28,1.28,0,1,1-1.27-1.28A1.27,1.27,0,0,1,139,3.87Z"/><path id="_Path_32" data-name="&lt;Path&gt;" class="ulbb7" d="M18.43,41.18a1.28,1.28,0,1,1-1.28-1.28A1.28,1.28,0,0,1,18.43,41.18Z"/><path id="_Path_33" data-name="&lt;Path&gt;" class="ulbb7" d="M156.74,21a.8.8,0,1,1-.8-.8A.8.8,0,0,1,156.74,21Z"/><path id="_Path_34" data-name="&lt;Path&gt;" class="ulbb7" d="M55.64.8a.8.8,0,1,1-.8-.8A.8.8,0,0,1,55.64.8Z"/><g id="_Group_11" data-name="&lt;Group&gt;"><path id="_Path_35" data-name="&lt;Path&gt;" class="ulbb8" d="M143.22,95.4V18.6a3.68,3.68,0,0,0-3.67-3.7H85.31a3.69,3.69,0,0,0-3.67,3.7V95.4Z"/><path id="_Path_36" data-name="&lt;Path&gt;" class="ulbb8" d="M81.64,27.11V18a3.09,3.09,0,0,1,3.09-3.08h55.41A3.08,3.08,0,0,1,143.22,18v9.13Z"/><path id="_Path_37" data-name="&lt;Path&gt;" class="ulbb4" d="M81.64,51.4V18a3.09,3.09,0,0,1,3.09-3.08h8.18"/><path id="_Path_38" data-name="&lt;Path&gt;" class="ulbb4" d="M103.6,14.9h36.54A3.08,3.08,0,0,1,143.22,18V31.9"/><line id="_Path_39" data-name="&lt;Path&gt;" class="ulbb4" x1="95.89" y1="14.9" x2="100.12" y2="14.9"/><line id="_Path_40" data-name="&lt;Path&gt;" class="ulbb4" x1="81.64" y1="27.28" x2="143.22" y2="27.28"/><line id="_Path_41" data-name="&lt;Path&gt;" class="ulbb4" x1="86.02" y1="19.28" x2="87.58" y2="19.28"/><line id="_Path_42" data-name="&lt;Path&gt;" class="ulbb4" x1="89.92" y1="19.28" x2="91.49" y2="19.28"/><line id="_Path_43" data-name="&lt;Path&gt;" class="ulbb4" x1="93.83" y1="19.28" x2="95.39" y2="19.28"/><rect id="_Rectangle_4" data-name="&lt;Rectangle&gt;" class="ulbb2" x="83.5" y="31.68" width="57.7" height="63.72"/><rect id="_Rectangle_5" data-name="&lt;Rectangle&gt;" class="ulbb2" x="101.23" y="21.66" width="32.72" height="2.24"/><rect id="_Rectangle_6" data-name="&lt;Rectangle&gt;" class="ulbb2" x="92.03" y="21.66" width="7.41" height="2.24" transform="translate(191.46 45.56) rotate(180)"/><rect id="_Rectangle_7" data-name="&lt;Rectangle&gt;" class="ulbb2" x="86.02" y="21.66" width="4.69" height="2.24"/><rect id="_Rectangle_8" data-name="&lt;Rectangle&gt;" class="ulbb3" x="87.28" y="35.32" width="17.4" height="23.42"/><rect id="_Rectangle_9" data-name="&lt;Rectangle&gt;" class="ulbb8" x="108.89" y="35.32" width="28.85" height="34.62"/><rect id="_Rectangle_10" data-name="&lt;Rectangle&gt;" class="ulbb5" x="108.89" y="75.62" width="28.85" height="5.68"/><path id="_Path_44" data-name="&lt;Path&gt;" class="ulbb5" d="M94.53,65.81H88.44a.87.87,0,0,1-.86-.86h0a.86.86,0,0,1,.86-.86h6.09a.86.86,0,0,1,.86.86h0A.87.87,0,0,1,94.53,65.81Z"/><path id="_Path_45" data-name="&lt;Path&gt;" class="ulbb9" d="M103.17,65.81H97.08a.86.86,0,0,1-.86-.86h0a.85.85,0,0,1,.86-.86h6.09A.86.86,0,0,1,104,65h0A.87.87,0,0,1,103.17,65.81Z"/></g><path id="_Path_46" data-name="&lt;Path&gt;" class="ulbb10" d="M141.19,95.4h2V33.27H131.87a4.51,4.51,0,0,0-4.44,3.79,5.32,5.32,0,0,0-4.62,5.27v7.32a3.7,3.7,0,0,0,.71,2.19,2.42,2.42,0,0,0-.71,1.71v1.62a2.43,2.43,0,0,0,2.42,2.43,2.54,2.54,0,0,0,.67-.11,13.5,13.5,0,0,0,9,11.15v.17a20.33,20.33,0,0,0-5.77,2.28l.39.65a17.67,17.67,0,0,0-2.64,1.92l-.5-.57a16.61,16.61,0,0,0-3.48,4.23l.67.38a13.52,13.52,0,0,0-1.28,3l-.74-.21a13.84,13.84,0,0,0-.54,3.83v11Z"/><g id="_Group_12" data-name="&lt;Group&gt;"><path id="_Path_47" data-name="&lt;Path&gt;" class="ulbb2" d="M157.26,55.17a1.68,1.68,0,0,1-1.67,1.68h0a1.68,1.68,0,0,1-1.67-1.68V53.55a1.67,1.67,0,0,1,1.67-1.67h0a1.67,1.67,0,0,1,1.67,1.67Z"/><path id="_Path_48" data-name="&lt;Path&gt;" class="ulbb4" d="M157.26,55.17a1.68,1.68,0,0,1-1.67,1.68h0a1.68,1.68,0,0,1-1.67-1.68V53.55a1.67,1.67,0,0,1,1.67-1.67h0a1.67,1.67,0,0,1,1.67,1.67Z"/><path id="_Path_49" data-name="&lt;Path&gt;" class="ulbb2" d="M128.91,55.17a1.68,1.68,0,0,1-1.68,1.68h0a1.68,1.68,0,0,1-1.67-1.68V53.55a1.67,1.67,0,0,1,1.67-1.67h0a1.68,1.68,0,0,1,1.68,1.67Z"/><path id="_Path_50" data-name="&lt;Path&gt;" class="ulbb4" d="M128.91,55.17a1.68,1.68,0,0,1-1.68,1.68h0a1.68,1.68,0,0,1-1.67-1.68V53.55a1.67,1.67,0,0,1,1.67-1.67h0a1.68,1.68,0,0,1,1.68,1.67Z"/><path id="_Path_51" data-name="&lt;Path&gt;" class="ulbb3" d="M159.51,95.4v-11c0-8.43-8-15.34-17.88-15.34h0c-9.83,0-17.88,6.91-17.88,15.34v11Z"/><path id="_Path_52" data-name="&lt;Path&gt;" class="ulbb4" d="M124.26,80.73a13.32,13.32,0,0,0-.51,3.63v11"/><path id="_Path_53" data-name="&lt;Path&gt;" class="ulbb4" d="M128.86,73.65a15.78,15.78,0,0,0-3.32,4"/><path id="_Path_54" data-name="&lt;Path&gt;" class="ulbb4" d="M153.18,72.68A19.6,19.6,0,0,0,141.63,69h0a19.84,19.84,0,0,0-10.12,2.72"/><line id="_Path_55" data-name="&lt;Path&gt;" class="ulbb4" x1="133.87" y1="83.3" x2="133.87" y2="95.4"/><line id="_Path_56" data-name="&lt;Path&gt;" class="ulbb4" x1="149.53" y1="83.3" x2="149.53" y2="95.4"/><path id="_Path_57" data-name="&lt;Path&gt;" class="ulbb2" d="M141,75.23h0a3.35,3.35,0,0,1-3.35-3.35V64.34a2.88,2.88,0,0,1,2.87-2.87h1a2.87,2.87,0,0,1,2.87,2.87v7.54A3.35,3.35,0,0,1,141,75.23Z"/><path id="_Path_58" data-name="&lt;Path&gt;" class="ulbb4" d="M141,75.23h0a3.35,3.35,0,0,1-3.35-3.35V64.34a2.88,2.88,0,0,1,2.87-2.87h1a2.87,2.87,0,0,1,2.87,2.87v7.54A3.35,3.35,0,0,1,141,75.23Z"/><path id="_Path_59" data-name="&lt;Path&gt;" class="ulbb2" d="M141.26,68.63h0a12.77,12.77,0,0,1-12.72-12.72V47.29c0-7,5.73-6.84,12.72-6.84h0c7,0,12.72-.16,12.72,6.84v8.62A12.76,12.76,0,0,1,141.26,68.63Z"/><path id="_Path_60" data-name="&lt;Path&gt;" class="ulbb4" d="M141.26,68.63h0a12.77,12.77,0,0,1-12.72-12.72V47.29c0-7,5.73-6.84,12.72-6.84h0c7,0,12.72-.16,12.72,6.84v8.62A12.76,12.76,0,0,1,141.26,68.63Z"/><path id="_Path_61" data-name="&lt;Path&gt;" class="ulbb8" d="M128.6,52.7h0a3,3,0,0,1-3-3.05V42.33a4.56,4.56,0,0,1,4.56-4.56h0A3.75,3.75,0,0,1,133.87,34h18.5a4.53,4.53,0,0,1,4.53,4.53v11a2.82,2.82,0,0,1-3,2.82h0V45.1s-2.09,3.42-8.66,3.41a23.3,23.3,0,0,1-13.12-3.94,6.66,6.66,0,0,1-1.55,2,2.16,2.16,0,0,1-2,.55Z"/><path id="_Path_62" data-name="&lt;Path&gt;" class="ulbb11" d="M128.6,52.7V47.15a2.16,2.16,0,0,0,2-.55,6.66,6.66,0,0,0,1.55-2s10.45,5.48,16.67,3.46c-6.76-2.91-15.52-4.67-17-13.4a3.78,3.78,0,0,0-1.69,3.14,4.56,4.56,0,0,0-4.56,4.56v7.32A3,3,0,0,0,128.6,52.7Z"/><path id="_Path_63" data-name="&lt;Path&gt;" class="ulbb4" d="M153.9,45.1v7.26h0a2.82,2.82,0,0,0,3-2.82v-11A4.53,4.53,0,0,0,152.37,34h-18.5a3.75,3.75,0,0,0-3.75,3.75h0a4.56,4.56,0,0,0-4.56,4.56v7.32a3,3,0,0,0,3,3.05h0V47.15a2.16,2.16,0,0,0,2-.55,6.66,6.66,0,0,0,1.55-2"/><path id="_Path_64" data-name="&lt;Path&gt;" class="ulbb4" d="M130.34,43.36s6.95,5.14,14.9,5.15A11.63,11.63,0,0,0,154.8,44"/></g><path id="_Path_65" data-name="&lt;Path&gt;" class="ulbb10" d="M91.17,93.06V56.16a3.09,3.09,0,0,0-3.08-3.09H81.64V95.4h8.44A3.08,3.08,0,0,0,91.17,93.06Z"/><g id="_Group_13" data-name="&lt;Group&gt;"><g id="_Group_14" data-name="&lt;Group&gt;"><rect id="_Rectangle_11" data-name="&lt;Rectangle&gt;" class="ulbb2" x="62.3" y="53.82" width="26.13" height="41.58" rx="1.99" ry="1.99"/><path id="_Path_66" data-name="&lt;Path&gt;" class="ulbb4" d="M71.31,53.82H86.09a2.33,2.33,0,0,1,2.33,2.34v36.9a2.33,2.33,0,0,1-2.33,2.34H64.64a2.34,2.34,0,0,1-2.34-2.34V56.16a2.34,2.34,0,0,1,2.34-2.34h1.43"/><line id="_Path_67" data-name="&lt;Path&gt;" class="ulbb4" x1="67.43" y1="53.82" x2="70.33" y2="53.82"/><line id="_Path_68" data-name="&lt;Path&gt;" class="ulbb4" x1="71.5" y1="56.95" x2="79.23" y2="56.95"/><path id="_Path_69" data-name="&lt;Path&gt;" class="ulbb4" d="M76.62,92a1.26,1.26,0,1,1-1.26-1.26A1.26,1.26,0,0,1,76.62,92Z"/><rect id="_Rectangle_12" data-name="&lt;Rectangle&gt;" class="ulbb3" x="64.91" y="59.82" width="20.9" height="29.45"/></g></g><g id="_Group_15" data-name="&lt;Group&gt;"><path id="_Path_70" data-name="&lt;Path&gt;" class="ulbb5" d="M76.43,46.16,74.92,38A15.46,15.46,0,1,0,69,44.81Z"/><path id="_Path_71" data-name="&lt;Path&gt;" class="ulbb4" d="M46.9,38.34A15.4,15.4,0,0,0,69,44.81l7.41,1.35L74.92,38a15.37,15.37,0,0,0-2.09-16"/><path id="_Path_72" data-name="&lt;Path&gt;" class="ulbb4" d="M67,17.6a15.44,15.44,0,0,0-20.37,8.14"/><path id="_Path_73" data-name="&lt;Path&gt;" class="ulbb4" d="M71.79,20.88a15.59,15.59,0,0,0-3.25-2.51"/><ellipse id="_Path_74" data-name="&lt;Path&gt;" class="ulbb2" cx="60.92" cy="31.75" rx="11.91" ry="11.63"/><g id="_Group_16" data-name="&lt;Group&gt;"><path id="_Path_75" data-name="&lt;Path&gt;" class="ulbb12" d="M62.6,27.73h.33a9.26,9.26,0,0,0,.57-2.45c0-.29,0-.76,0-1.19,0,.1,0,.2,0,.28A13.76,13.76,0,0,1,62.6,27.73Z"/><path id="_Path_76" data-name="&lt;Path&gt;" class="ulbb4" d="M67.87,33h1.87a1.1,1.1,0,0,0,1.1-1.1h0a1.1,1.1,0,0,0-1.1-1.1H67.87"/><path id="_Path_77" data-name="&lt;Path&gt;" class="ulbb4" d="M65.94,35.23h2.65a1.11,1.11,0,0,0,1.1-1.1h0a1.1,1.1,0,0,0-1.1-1.1H65.94"/><path id="_Path_78" data-name="&lt;Path&gt;" class="ulbb4" d="M66.4,35.23h1a1.1,1.1,0,0,1,1.1,1.09h0a1.1,1.1,0,0,1-1.1,1.1H61.19a1.06,1.06,0,0,1-.75-.31L59.35,36a.89.89,0,0,0-.63-.27h-.27"/><path id="_Path_79" data-name="&lt;Path&gt;" class="ulbb4" d="M65.94,30.83h3.37a1.1,1.1,0,0,0,1.1-1.09h0a1.1,1.1,0,0,0-1.1-1.1H62.48a13.64,13.64,0,0,0,.91-3.36,4.41,4.41,0,0,0-.19-2,1.19,1.19,0,0,0-1.13,0,19.29,19.29,0,0,1-1.38,3.34c-.31.43-1.52,2-1.52,2H58"/><path id="_Path_80" data-name="&lt;Path&gt;" class="ulbb4" d="M56,27.45h1.34a.91.91,0,0,1,.92.91v7.52a.92.92,0,0,1-.92.91H52.12"/></g><line id="_Path_81" data-name="&lt;Path&gt;" class="ulbb4" x1="51.12" y1="36.79" x2="31.05" y2="36.79"/><line id="_Path_82" data-name="&lt;Path&gt;" class="ulbb4" x1="53.69" y1="33.67" x2="41.88" y2="33.67"/><line id="_Path_83" data-name="&lt;Path&gt;" class="ulbb4" x1="38.06" y1="33.67" x2="40.88" y2="33.67"/><line id="_Path_84" data-name="&lt;Path&gt;" class="ulbb4" x1="54.02" y1="30.56" x2="27.96" y2="30.56"/><line id="_Path_85" data-name="&lt;Path&gt;" class="ulbb4" x1="55.54" y1="27.45" x2="28.06" y2="27.45"/></g><g id="_Group_17" data-name="&lt;Group&gt;"><rect id="_Rectangle_13" data-name="&lt;Rectangle&gt;" class="ulbb2" x="151.29" y="74.61" width="30.77" height="20.79" rx="0.7" ry="0.7"/><rect id="_Rectangle_14" data-name="&lt;Rectangle&gt;" class="ulbb4" x="151.29" y="74.61" width="30.77" height="20.79" rx="0.7" ry="0.7"/><path id="_Path_86" data-name="&lt;Path&gt;" class="ulbb7" d="M169.37,83.23l-4.9,2.82a.46.46,0,0,1-.69-.4V80a.46.46,0,0,1,.69-.4l4.9,2.83A.46.46,0,0,1,169.37,83.23Z"/><line id="_Path_87" data-name="&lt;Path&gt;" class="ulbb4" x1="154.73" y1="91.6" x2="178.32" y2="91.6"/><line id="_Path_88" data-name="&lt;Path&gt;" class="ulbb4" x1="160" y1="93.47" x2="160" y2="89.72"/></g><g id="_Group_18" data-name="&lt;Group&gt;"><line id="_Path_89" data-name="&lt;Path&gt;" class="ulbb4" x1="15.78" y1="95.4" x2="18.52" y2="95.4"/><line id="_Path_90" data-name="&lt;Path&gt;" class="ulbb4" x1="185.73" y1="95.4" x2="191.78" y2="95.4"/><line id="_Path_91" data-name="&lt;Path&gt;" class="ulbb4" x1="20.34" y1="95.4" x2="184.16" y2="95.4"/></g></g></g></g></svg>