<svg xmlns="http://www.w3.org/2000/svg" viewBox="0 0 215.75 99.41"><defs><style>.ulbc1,.ulbc8{fill:#d2e9f7;}.ulbc1,.ulbc9{opacity:0.5;}.ulbc2,.ulbc3{fill:none;stroke:#36a3f7;stroke-miterlimit:10;stroke-width:1.5px;}.ulbc2{stroke-linecap:round;}.ulbc4{fill:#36a3f7;}.ulbc10,.ulbc14,.ulbc5,.ulbc9{fill:#96cef8;}.ulbc6{fill:#fff;}.ulbc7{fill:#9ecfef;}.ulbc10{opacity:0.3;}.ulbc11{fill:#7fc0ea;}.ulbc12{fill:#e4f2fa;}.ulbc13{fill:#c5e2f5;}.ulbc14{opacity:0.6;}</style></defs><title>Asset 2</title><g id="Layer_2" data-name="Layer 2"><g id="Power_Tools" data-name="Power Tools"><g id="_Group_" data-name="&lt;Group&gt;"><path id="_Path_" data-name="&lt;Path&gt;" class="ulbc1" d="M206.14,19.14h0A11.46,11.46,0,0,1,194.68,30.6H167.9A15.93,15.93,0,0,1,152,46.53H129.89A8.89,8.89,0,0,0,121,55.42h0a8.89,8.89,0,0,0,8.89,8.89h76.59a9.27,9.27,0,0,1,9.27,9.28h0a9.27,9.27,0,0,1-9.27,9.27H156.57a14.34,14.34,0,0,0-14.34,14.38h0l-97,.2.29-17H11.11A11.11,11.11,0,0,1,0,69.33H0A11.1,11.1,0,0,1,11.11,58.22H37.84A10.24,10.24,0,0,0,48.08,48h0A10.24,10.24,0,0,0,37.84,37.73H35.36a15,15,0,0,1-15-15h0a15,15,0,0,1,15-15H194.68A11.46,11.46,0,0,1,206.14,19.14Z"/><g id="_Group_2" data-name="&lt;Group&gt;"><line id="_Path_2" data-name="&lt;Path&gt;" class="ulbc2" x1="82.59" y1="18.75" x2="86.87" y2="18.75"/><line id="_Path_3" data-name="&lt;Path&gt;" class="ulbc2" x1="84.73" y1="20.89" x2="84.73" y2="16.61"/></g><g id="_Group_3" data-name="&lt;Group&gt;"><line id="_Path_4" data-name="&lt;Path&gt;" class="ulbc2" x1="184.7" y1="50.16" x2="188.98" y2="50.16"/><line id="_Path_5" data-name="&lt;Path&gt;" class="ulbc2" x1="186.84" y1="52.3" x2="186.84" y2="48.03"/></g><g id="_Group_4" data-name="&lt;Group&gt;"><line id="_Path_6" data-name="&lt;Path&gt;" class="ulbc2" x1="123.2" y1="4.54" x2="126.22" y2="1.51"/><line id="_Path_7" data-name="&lt;Path&gt;" class="ulbc2" x1="126.22" y1="4.54" x2="123.2" y2="1.51"/></g><g id="_Group_5" data-name="&lt;Group&gt;"><line id="_Path_8" data-name="&lt;Path&gt;" class="ulbc2" x1="51.03" y1="40.87" x2="54.05" y2="37.85"/><line id="_Path_9" data-name="&lt;Path&gt;" class="ulbc2" x1="54.05" y1="40.87" x2="51.03" y2="37.85"/></g><line id="_Path_10" data-name="&lt;Path&gt;" class="ulbc3" x1="54.83" y1="18.75" x2="72.23" y2="18.75"/><line id="_Path_11" data-name="&lt;Path&gt;" class="ulbc3" x1="162.96" y1="50.16" x2="180.35" y2="50.16"/><line id="_Path_12" data-name="&lt;Path&gt;" class="ulbc3" x1="135.89" y1="16.61" x2="169.1" y2="16.61"/><line id="_Path_13" data-name="&lt;Path&gt;" class="ulbc3" x1="10.06" y1="39.36" x2="48.46" y2="39.36"/><line id="_Path_14" data-name="&lt;Path&gt;" class="ulbc3" x1="169.69" y1="40.56" x2="203.99" y2="40.56"/><line id="_Path_15" data-name="&lt;Path&gt;" class="ulbc3" x1="77.3" y1="18.75" x2="73.73" y2="18.75"/><path id="_Path_16" data-name="&lt;Path&gt;" class="ulbc4" d="M28.49,69.24a1.19,1.19,0,1,1-1.19-1.19A1.19,1.19,0,0,1,28.49,69.24Z"/><path id="_Path_17" data-name="&lt;Path&gt;" class="ulbc4" d="M204,49.32a1.19,1.19,0,1,1-1.18-1.19A1.18,1.18,0,0,1,204,49.32Z"/><path id="_Path_18" data-name="&lt;Path&gt;" class="ulbc4" d="M159.1,25.26a1.19,1.19,0,1,1-1.18-1.19A1.18,1.18,0,0,1,159.1,25.26Z"/><path id="_Path_19" data-name="&lt;Path&gt;" class="ulbc4" d="M57.25,5.23A1.73,1.73,0,1,1,55.52,3.5,1.72,1.72,0,0,1,57.25,5.23Z"/><path id="_Path_20" data-name="&lt;Path&gt;" class="ulbc4" d="M101.1,12.15A1.19,1.19,0,1,1,99.91,11,1.19,1.19,0,0,1,101.1,12.15Z"/><path id="_Path_21" data-name="&lt;Path&gt;" class="ulbc4" d="M41.76,47.81a1.52,1.52,0,1,1-1.51-1.52A1.52,1.52,0,0,1,41.76,47.81Z"/><path id="_Path_22" data-name="&lt;Path&gt;" class="ulbc4" d="M183.38,70.43a1.52,1.52,0,1,1-1.51-1.52A1.52,1.52,0,0,1,183.38,70.43Z"/><path id="_Path_23" data-name="&lt;Path&gt;" class="ulbc4" d="M173.17,1.51A1.52,1.52,0,1,1,171.65,0,1.52,1.52,0,0,1,173.17,1.51Z"/><g id="_Group_6" data-name="&lt;Group&gt;"><path id="_Rectangle_" data-name="&lt;Rectangle&gt;" class="ulbc5" d="M75.54,28.56h76.94a2,2,0,0,1,2,2V76.68a0,0,0,0,1,0,0H73.57a0,0,0,0,1,0,0V30.54A2,2,0,0,1,75.54,28.56Z"/><path id="_Path_24" data-name="&lt;Path&gt;" class="ulbc3" d="M73.57,52.68V32.47a3.91,3.91,0,0,1,3.91-3.91H96.59"/><path id="_Path_25" data-name="&lt;Path&gt;" class="ulbc3" d="M133.3,28.56h17.25a3.91,3.91,0,0,1,3.91,3.91V55.54"/><rect id="_Rectangle_2" data-name="&lt;Rectangle&gt;" class="ulbc6" x="77.96" y="33.27" width="72.2" height="38"/><rect id="_Rectangle_3" data-name="&lt;Rectangle&gt;" class="ulbc6" x="101.83" y="83.97" width="24.37" height="14.43"/><rect id="_Rectangle_4" data-name="&lt;Rectangle&gt;" class="ulbc7" x="101.83" y="83.97" width="24.37" height="7.21"/><rect id="_Rectangle_5" data-name="&lt;Rectangle&gt;" class="ulbc3" x="101.83" y="83.97" width="24.37" height="14.43"/><path id="_Rectangle_6" data-name="&lt;Rectangle&gt;" class="ulbc6" d="M73.57,74.91h80.89a0,0,0,0,1,0,0v8.92a2,2,0,0,1-2,2H75.57a2,2,0,0,1-2-2V74.91A0,0,0,0,1,73.57,74.91Z"/><line id="_Path_26" data-name="&lt;Path&gt;" class="ulbc3" x1="95.57" y1="85.83" x2="139.96" y2="85.83"/><line id="_Path_27" data-name="&lt;Path&gt;" class="ulbc3" x1="140.46" y1="74.91" x2="96.07" y2="74.91"/><line id="_Path_28" data-name="&lt;Path&gt;" class="ulbc3" x1="97.09" y1="98.66" x2="131.25" y2="98.66"/></g><g id="_Group_7" data-name="&lt;Group&gt;"><rect id="_Rectangle_7" data-name="&lt;Rectangle&gt;" class="ulbc5" x="35.81" y="54.56" width="58.13" height="41.78" rx="1" ry="1"/><line id="_Path_29" data-name="&lt;Path&gt;" class="ulbc3" x1="81.15" y1="54.56" x2="85.17" y2="54.56"/><path id="_Path_30" data-name="&lt;Path&gt;" class="ulbc3" d="M35.81,93.9V56a1.45,1.45,0,0,1,1.45-1.44H78.58"/><path id="_Path_31" data-name="&lt;Path&gt;" class="ulbc3" d="M86.86,54.56H92.5A1.45,1.45,0,0,1,94,56V94.9a1.45,1.45,0,0,1-1.45,1.44"/><rect id="_Rectangle_8" data-name="&lt;Rectangle&gt;" class="ulbc6" x="38.64" y="57.85" width="52.17" height="33.91"/><path id="_Path_32" data-name="&lt;Path&gt;" class="ulbc6" d="M92.93,98.66H36.19a2.79,2.79,0,0,1-2.75-2.33L33,93.87h26.3l1,1.44h7.26l1.09-1.44H96.4L96.05,96A3.16,3.16,0,0,1,92.93,98.66Z"/><path id="_Path_33" data-name="&lt;Path&gt;" class="ulbc3" d="M92.93,98.66H36.19a2.79,2.79,0,0,1-2.75-2.33L33,93.87h26.3l1,1.44h7.26l1.09-1.44H96.4L96.05,96A3.16,3.16,0,0,1,92.93,98.66Z"/></g><g id="_Group_8" data-name="&lt;Group&gt;"><rect id="_Rectangle_9" data-name="&lt;Rectangle&gt;" class="ulbc6" x="136.27" y="63.28" width="41.15" height="29.62" rx="1.91" ry="1.91" transform="translate(234.93 -78.76) rotate(90)"/><path id="_Path_34" data-name="&lt;Path&gt;" class="ulbc3" d="M171.65,71.69V96.75a1.9,1.9,0,0,1-1.91,1.91H144A1.9,1.9,0,0,1,142,96.75V59.42A1.91,1.91,0,0,1,144,57.51h25.79a1.91,1.91,0,0,1,1.91,1.91v2.17"/><line id="_Path_35" data-name="&lt;Path&gt;" class="ulbc3" x1="171.65" y1="65.65" x2="171.65" y2="68.98"/><line id="_Path_36" data-name="&lt;Path&gt;" class="ulbc3" x1="160.65" y1="60.71" x2="153.04" y2="60.71"/><rect id="_Rectangle_10" data-name="&lt;Rectangle&gt;" class="ulbc8" x="141.8" y="65.61" width="30.1" height="24.55" transform="translate(234.73 -78.96) rotate(90)"/><path id="_Path_37" data-name="&lt;Path&gt;" class="ulbc3" d="M156.85,95.94a1.07,1.07,0,1,1,1.07-1.07A1.07,1.07,0,0,1,156.85,95.94Z"/></g><g id="_Group_9" data-name="&lt;Group&gt;"><path id="_Path_38" data-name="&lt;Path&gt;" class="ulbc5" d="M65.22,63.19v12.1h0l8.53,8.56a12.06,12.06,0,0,0,3.56-8.53v0A12.1,12.1,0,0,0,65.22,63.19Z"/><path id="_Path_39" data-name="&lt;Path&gt;" class="ulbc9" d="M56.09,66.72a12,12,0,0,0-3.55,8.54l12.09,0h0V63.19A12.07,12.07,0,0,0,56.09,66.72Z"/><path id="_Path_40" data-name="&lt;Path&gt;" class="ulbc10" d="M64.64,75.88h0l-12.09,0v0a12.1,12.1,0,0,0,20.64,8.57Z"/><path id="_Path_41" data-name="&lt;Path&gt;" class="ulbc3" d="M77.61,75.08A12.89,12.89,0,1,1,64.72,62.2,12.89,12.89,0,0,1,77.61,75.08Z"/><polyline id="_Path_42" data-name="&lt;Path&gt;" class="ulbc3" points="51.84 75.54 64.72 75.54 73.18 83.85"/><line id="_Path_43" data-name="&lt;Path&gt;" class="ulbc3" x1="64.21" y1="61.95" x2="64.21" y2="75.29"/></g><rect id="_Rectangle_11" data-name="&lt;Rectangle&gt;" class="ulbc5" x="98.72" y="20.98" width="8.96" height="50.43"/><rect id="_Rectangle_12" data-name="&lt;Rectangle&gt;" class="ulbc11" x="98.72" y="20.98" width="4.48" height="50.43"/><polyline id="_Path_44" data-name="&lt;Path&gt;" class="ulbc3" points="107.68 71.42 107.68 20.98 98.72 20.98 98.72 71.42"/><rect id="_Rectangle_13" data-name="&lt;Rectangle&gt;" class="ulbc8" x="110.37" y="13.34" width="8.96" height="58.08"/><rect id="_Rectangle_14" data-name="&lt;Rectangle&gt;" class="ulbc12" x="110.37" y="13.34" width="4.48" height="58.08"/><polyline id="_Path_45" data-name="&lt;Path&gt;" class="ulbc3" points="119.33 71.42 119.33 13.34 110.37 13.34 110.37 71.42"/><rect id="_Rectangle_15" data-name="&lt;Rectangle&gt;" class="ulbc7" x="122.47" y="7.3" width="8.96" height="64.12"/><rect id="_Rectangle_16" data-name="&lt;Rectangle&gt;" class="ulbc13" x="122.47" y="7.3" width="4.48" height="64.12"/><polyline id="_Path_46" data-name="&lt;Path&gt;" class="ulbc3" points="131.43 71.42 131.43 7.3 122.47 7.3 122.47 71.42"/><g id="_Group_10" data-name="&lt;Group&gt;"><polygon id="_Path_47" data-name="&lt;Path&gt;" class="ulbc5" points="144.59 81.19 144.59 92.88 149.88 92.87 149.88 76.75 144.59 81.19"/><polygon id="_Path_48" data-name="&lt;Path&gt;" class="ulbc5" points="154.5 78.79 154.49 78.78 154.49 92.85 160.57 92.84 160.57 74.27 154.5 78.79"/><polygon id="_Path_49" data-name="&lt;Path&gt;" class="ulbc14" points="149.92 76.72 149.88 76.75 149.88 92.87 154.49 92.85 154.49 78.78 149.92 76.72"/><polygon id="_Path_50" data-name="&lt;Path&gt;" class="ulbc5" points="169.1 72.28 164.34 76.39 164.34 92.83 169.1 92.82 169.1 72.28"/><polygon id="_Path_51" data-name="&lt;Path&gt;" class="ulbc14" points="164.34 76.39 160.57 74.27 160.57 92.84 164.34 92.83 164.34 76.39 164.34 76.39"/><polyline id="_Path_52" data-name="&lt;Path&gt;" class="ulbc3" points="169.1 72.56 168.78 72.56 164.34 76.39 160.57 74.27 154.49 78.78 149.88 76.75 145.11 80.82 144.59 80.82"/></g><g id="_Group_11" data-name="&lt;Group&gt;"><line id="_Path_53" data-name="&lt;Path&gt;" class="ulbc3" x1="20.88" y1="98.66" x2="184.7" y2="98.66"/><line id="_Path_54" data-name="&lt;Path&gt;" class="ulbc3" x1="16.32" y1="98.66" x2="19.06" y2="98.66"/><line id="_Path_55" data-name="&lt;Path&gt;" class="ulbc3" x1="186.27" y1="98.66" x2="192.32" y2="98.66"/></g></g></g></g></svg>