<svg xmlns="http://www.w3.org/2000/svg" viewBox="0 0 264 72"><defs><style>.cls-1{fill:#aeaeae;}.cls-2{fill:#cfcfcf;}</style></defs><title>logo-bw</title><g id="Layer_2" data-name="Layer 2"><g id="Layer_1-2" data-name="Layer 1"><path class="cls-1" d="M87,51a10.71,10.71,0,0,1-3.3-5.76A38.73,38.73,0,0,1,82.75,36a34.58,34.58,0,0,1,1.07-9.5,10,10,0,0,1,3.9-5.66q2.82-2,8-2a44.6,44.6,0,0,1,6.08.38q2.72.39,5.8,1.12v5.18c-1.24-.15-2.81-.29-4.73-.43s-3.87-.2-5.87-.2a8.23,8.23,0,0,0-4.56,1,5.35,5.35,0,0,0-2.1,3.36A30.49,30.49,0,0,0,89.78,36a29.64,29.64,0,0,0,.57,6.7,5.31,5.31,0,0,0,1.86,3.21,6.22,6.22,0,0,0,3.66.91,23.41,23.41,0,0,0,3.56-.27,20.51,20.51,0,0,0,3-.69V39.34H96.15V34c.95-.13,2.2-.23,3.74-.32s3-.14,4.39-.14c2,0,3.62,0,5,.14V52.8H104l-1-2.28a20.34,20.34,0,0,1-4.26,1.75,17.92,17.92,0,0,1-5.2.75A9.74,9.74,0,0,1,87,51Z"/><path class="cls-1" d="M115.67,51.41a5.89,5.89,0,0,1-1.79-4.52V44.7A5.7,5.7,0,0,1,116,40.06q2.11-1.73,6.3-1.72h6.51V36.65a3.66,3.66,0,0,0-.43-1.93,2.63,2.63,0,0,0-1.61-1,14,14,0,0,0-3.52-.34H115.6V29.42a36.5,36.5,0,0,1,10.22-1.36c3.35,0,5.87.61,7.53,1.82s2.5,3.32,2.5,6.32V52.8h-5.57l-1.14-2.6a8.21,8.21,0,0,1-1.85,1.19,16.63,16.63,0,0,1-3.16,1.18,14.27,14.27,0,0,1-3.73.5A6.63,6.63,0,0,1,115.67,51.41Zm11.1-3.5a15,15,0,0,0,2-.71V41.52l-4.28.27q-3.61.27-3.61,3v1c0,1.73,1,2.6,3.14,2.6A9.87,9.87,0,0,0,126.77,47.91Z"/><path class="cls-1" d="M141.24,24.53a.87.87,0,0,1-.26-.66V19.42c0-.64.33-1,1-1h5.42a.81.81,0,0,1,.66.28,1,1,0,0,1,.24.68v4.45a.8.8,0,0,1-.9.91H142A1,1,0,0,1,141.24,24.53Zm-.12,3.85h7V52.8h-7Z"/><path class="cls-1" d="M153.58,28.38h5.79l1.24,2.5a14.49,14.49,0,0,1,3.76-2.07,11.83,11.83,0,0,1,4.27-.84c2.89,0,4.93.79,6.14,2.36a10.27,10.27,0,0,1,1.8,6.37V52.8h-7V37.56a3.41,3.41,0,0,0-1-2.63,3.75,3.75,0,0,0-2.68-.91,9.31,9.31,0,0,0-5.28,1.81v17h-7Z"/><path class="cls-2" d="M181.33,47.39l11.75-11.15a17.19,17.19,0,0,0,3.16-3.63,6.69,6.69,0,0,0,1-3.46A3.56,3.56,0,0,0,196,26.24a6.23,6.23,0,0,0-4-1h-9.89V20q3-.5,5.64-.79a49,49,0,0,1,5.63-.3q5.9,0,8.37,2.3c1.64,1.53,2.47,3.83,2.47,6.89a12.25,12.25,0,0,1-1.36,5.84,20.6,20.6,0,0,1-4.3,5.3l-7.89,7.5h14.64v6.1h-24Z"/><path class="cls-2" d="M209.81,52.3V47h12.41a4.57,4.57,0,0,0,3.42-1.1,3.74,3.74,0,0,0,1-2.72V40.84q0-3.47-3.61-3.46h-2.76A3.84,3.84,0,0,0,218,38a3,3,0,0,0-1,1.89h-6.65l1-20.73h21.11v6H217.32l-.38,8a4.58,4.58,0,0,1,2-1.12,9.94,9.94,0,0,1,2.83-.38h3.85a8,8,0,0,1,6.06,2.2,7.9,7.9,0,0,1,2.12,5.71v5c0,2.91-1,5-3,6.41s-4.94,2-8.84,2Q217.33,53,209.81,52.3Z"/><path class="cls-2" d="M240.85,50.75a8.42,8.42,0,0,1-2.38-6.46V27.92a8.88,8.88,0,0,1,2.45-6.71,9.47,9.47,0,0,1,6.82-2.34h7.32q4.38,0,6.66,2.37A9.22,9.22,0,0,1,264,27.92V44.29a8.53,8.53,0,0,1-2.35,6.44A9.16,9.16,0,0,1,255.06,53h-7.37C244.72,53,242.43,52.24,240.85,50.75Zm12.31-3.82c2.54,0,3.8-1.21,3.8-3.64V28.56q0-3.64-3.51-3.64h-4.33a3.61,3.61,0,0,0-2.68.93,3.68,3.68,0,0,0-.93,2.71V43.25q0,3.68,3.85,3.68Z"/><polygon class="cls-1" points="21.98 50.32 22 32.28 40.73 32.26 21.98 50.32"/><polygon class="cls-1" points="33.07 39.64 33.09 21.6 51.82 21.58 33.07 39.64"/><polygon class="cls-1" points="51.82 18.06 33.09 18.04 33.07 0 51.82 18.06"/><polygon class="cls-1" points="0.03 28.73 29.62 28.72 29.63 0.23 0.03 28.73"/><polygon class="cls-1" points="0 32.45 18.56 50.32 18.54 32.28 0 32.26 0 32.45"/><polygon class="cls-2" points="55.91 21.98 20.16 56.41 0 37 0 52.59 12.06 64.2 12.06 64.2 20.15 72 64 29.78 55.91 21.98"/><polygon class="cls-1" points="9.42 14.48 0.03 14.48 5.77 18 9.42 14.48"/><polygon class="cls-1" points="16.82 7.35 0 7.35 13.17 10.86 16.82 7.35"/><polygon class="cls-1" points="24.22 0.23 0.03 0.23 20.54 3.77 24.22 0.23"/></g></g></svg>