<svg xmlns="http://www.w3.org/2000/svg" viewBox="0 0 64 64"><defs><style>.cls-1{fill:#eaeaea;}.cls-2{fill:#d2d2d2;}</style></defs><title>user-pic</title><g id="Layer_2" data-name="Layer 2"><g id="Layer_1-2" data-name="Layer 1"><circle class="cls-1" cx="32" cy="32" r="32"/><path class="cls-2" d="M41.75,37.4a15,15,0,1,0-19.5,0A21,21,0,0,0,11,56s0,.1,0,.15a32.22,32.22,0,0,0,3.69,2.76A3,3,0,0,0,17,56a15,15,0,0,1,30,0,3,3,0,0,0,2.3,2.91A32.22,32.22,0,0,0,53,56.15s0-.1,0-.15A21,21,0,0,0,41.75,37.4ZM32,35a9,9,0,1,1,9-9A9,9,0,0,1,32,35Z"/></g></g></svg>